<svg xmlns="http://www.w3.org/2000/svg" xmlns:xlink="http://www.w3.org/1999/xlink" width="283.349" height="283.215" viewBox="0 0 283.349 283.215">
  <defs>
    <linearGradient id="linear-gradient" x1="0.536" y1="1" x2="0.5" gradientUnits="objectBoundingBox">
      <stop offset="0" stop-color="#50b836"/>
      <stop offset="1" stop-color="#58ff64"/>
    </linearGradient>
    <linearGradient id="linear-gradient-2" x1="0.536" y1="1" x2="0.555" gradientUnits="objectBoundingBox">
      <stop offset="0" stop-color="#6ba51d"/>
      <stop offset="1" stop-color="#73ef40"/>
    </linearGradient>
    <clipPath id="clip-path">
      <rect id="Rectangle_1199" data-name="Rectangle 1199" width="283" height="283" transform="translate(6258 12466)" stroke="#67e9ff" stroke-miterlimit="10" stroke-width="0.2" fill="url(#linear-gradient)"/>
    </clipPath>
    <linearGradient id="linear-gradient-3" x1="0.941" y1="0.868" x2="0.305" y2="0.283" gradientUnits="objectBoundingBox">
      <stop offset="0" stop-color="#73c141"/>
      <stop offset="1" stop-color="#428f10"/>
    </linearGradient>
  </defs>
  <g id="Group_21093" data-name="Group 21093" transform="translate(-5197 -15781)">
    <rect id="Rectangle_1198" data-name="Rectangle 1198" width="283" height="283" transform="translate(5197 15781)" fill="url(#linear-gradient-2)"/>
    <path id="Path_112719" data-name="Path 112719" d="M11625.7,16880.982l55.483,49.232h153.165v-133.629l-64.079-64.861-154.729,16.41,7.033,67.205,32.821,39.854Z" transform="translate(-6354 -866)" opacity="0.7" fill="url(#linear-gradient-3)"/>
    <path id="Subtraction_173" data-name="Subtraction 173" d="M-6360.046-287.511c-.394,0-.628-.1-.719-.305-.43-.977,2.5-4.181,6.931-9.03.8-.879,1.532-1.676,2.314-2.538,6.037-6.654,4.863-11.18,4.421-12.884-.04-.154-.082-.314-.107-.44-14.91-7.463-27.389-18.009-36.088-30.5a77.546,77.546,0,0,1-10.123-20.148A71.724,71.724,0,0,1-6397-385.727a72.321,72.321,0,0,1,8.1-33.192,81.993,81.993,0,0,1,9.5-14.485,91.871,91.871,0,0,1,12.584-12.62,102.15,102.15,0,0,1,15.251-10.412,111.348,111.348,0,0,1,17.5-7.862,121.1,121.1,0,0,1,40.112-6.7,121.1,121.1,0,0,1,40.112,6.7,111.345,111.345,0,0,1,17.5,7.862,102.17,102.17,0,0,1,15.251,10.412A91.855,91.855,0,0,1-6208.5-433.4a81.991,81.991,0,0,1,9.5,14.485,72.321,72.321,0,0,1,8.1,33.192,72.322,72.322,0,0,1-8.1,33.193,81.986,81.986,0,0,1-9.5,14.485,91.852,91.852,0,0,1-12.583,12.62,102.167,102.167,0,0,1-15.251,10.413,111.352,111.352,0,0,1-17.5,7.862,121.1,121.1,0,0,1-40.112,6.7,126.08,126.08,0,0,1-13.979-.777l.013.087c-.011,0-.725-.132-1.845-.307-1.054-.136-2.122-.286-3.174-.446a66.114,66.114,0,0,0-8.016-.586c-3.338,0-5.482.45-6.374,1.339-1.3,1.3-7.146,4.149-15.627,7.624-7.217,2.957-14.413,5.562-16.383,5.93A4.059,4.059,0,0,1-6360.046-287.511Zm95.7-88.488c.033,3.292,1.457,14.035,18.386,14.035,11.676,0,18.647-5.466,18.647-14.622,0-7.263-4.034-11.523-12.333-13.022l-6.248-1.177a11.339,11.339,0,0,1-4.385-1.538,3.162,3.162,0,0,1-1.538-2.715,3.927,3.927,0,0,1,1.551-3.223,7.452,7.452,0,0,1,4.568-1.259,7.662,7.662,0,0,1,5.075,1.619,4.922,4.922,0,0,1,1.763,3.484h10.731c-.031-6.872-5.475-13.807-17.568-13.807-10.792,0-17.764,5.548-17.764,14.134,0,6.977,4.073,11.314,12.1,12.888l6.019,1.211a13.855,13.855,0,0,1,4.862,1.644,3.316,3.316,0,0,1,1.648,2.97,3.955,3.955,0,0,1-1.619,3.288,8.545,8.545,0,0,1-5.153,1.325,9.161,9.161,0,0,1-5.618-1.624,4.94,4.94,0,0,1-2.036-3.612Zm-95.756,0c.033,3.292,1.457,14.035,18.385,14.035,11.676,0,18.647-5.466,18.647-14.622,0-7.263-4.034-11.523-12.333-13.022l-6.249-1.177a11.334,11.334,0,0,1-4.384-1.538,3.162,3.162,0,0,1-1.538-2.715,3.927,3.927,0,0,1,1.551-3.223,7.451,7.451,0,0,1,4.567-1.259,7.662,7.662,0,0,1,5.074,1.619,4.919,4.919,0,0,1,1.763,3.484h10.731c-.031-6.872-5.475-13.807-17.568-13.807-10.792,0-17.764,5.548-17.764,14.134,0,6.977,4.073,11.314,12.1,12.888l6.019,1.211a13.856,13.856,0,0,1,4.862,1.644,3.317,3.317,0,0,1,1.647,2.97,3.955,3.955,0,0,1-1.62,3.288,8.543,8.543,0,0,1-5.152,1.325,9.161,9.161,0,0,1-5.619-1.624,4.942,4.942,0,0,1-2.036-3.612Zm78.614-13.544h.523v26.793h10.535V-407.4H-6282.5l-10.861,23.587h-.393l-10.861-23.587h-12.169v44.655h10.4v-26.793h.523l8.931,19.5h6.576l8.865-19.5Z" transform="translate(11632 16300.75)" fill="#fff"/>
  </g>
</svg>
