<svg xmlns="http://www.w3.org/2000/svg" xmlns:xlink="http://www.w3.org/1999/xlink" width="283" height="283" viewBox="0 0 283 283">
  <defs>
    <linearGradient id="linear-gradient" x1="0.531" y1="1" x2="0.523" gradientUnits="objectBoundingBox">
      <stop offset="0" stop-color="#00a7d7"/>
      <stop offset="1" stop-color="#06d5f6"/>
    </linearGradient>
    <linearGradient id="linear-gradient-2" x1="1" y1="0.801" x2="0.14" y2="0.252" gradientUnits="objectBoundingBox">
      <stop offset="0" stop-color="#0aa7d1"/>
      <stop offset="1" stop-color="#0d8bac"/>
    </linearGradient>
  </defs>
  <g id="Group_21087" data-name="Group 21087" transform="translate(-6258 -10528)">
    <rect id="Rectangle_1181" data-name="Rectangle 1181" width="283" height="283" transform="translate(6258 10528)" fill="url(#linear-gradient)"/>
    <path id="Path_112703" data-name="Path 112703" d="M12744.493,11228.5l78.335,53.1h115.6l-1.931-135.12-91.431-80.256-114.8,35.557v56.891l36.572,35.556Z" transform="translate(-6397.429 -471)" opacity="0.7" fill="url(#linear-gradient-2)"/>
    <path id="Subtraction_156" data-name="Subtraction 156" d="M31.971,174.92V143.767a84.628,84.628,0,0,1-13.227-12.513A80.562,80.562,0,0,1,8.669,116.3,77.058,77.058,0,0,1,2.252,99.387,76.289,76.289,0,0,1,6.822,49.459a79.448,79.448,0,0,1,8-13.756,83.084,83.084,0,0,1,10.6-11.985A86.417,86.417,0,0,1,38.268,13.83,88.937,88.937,0,0,1,53.011,6.363a92.86,92.86,0,0,1,67.57,0,88.932,88.932,0,0,1,14.743,7.467,86.41,86.41,0,0,1,12.845,9.889,83.079,83.079,0,0,1,10.6,11.985,79.446,79.446,0,0,1,8,13.756,76.251,76.251,0,0,1,0,63.042,79.449,79.449,0,0,1-8,13.756,83.082,83.082,0,0,1-10.6,11.985,86.413,86.413,0,0,1-12.845,9.889,88.93,88.93,0,0,1-14.743,7.467A91.628,91.628,0,0,1,86.8,161.963a92.8,92.8,0,0,1-25.7-3.6L31.972,174.92ZM127.754,66.848c-.212,0-.428,0-.64.01A15.065,15.065,0,0,0,116.47,71.51a17.1,17.1,0,0,0-4.36,12.41A15.122,15.122,0,0,0,116.4,94.878a15.651,15.651,0,0,0,11.282,4.584c.588,0,1.189-.03,1.787-.09,9.072-.911,14.741-7.608,14.442-17.061C143.623,73.206,136.978,66.848,127.754,66.848Zm-49.719-.163a13.253,13.253,0,0,0-6.782,2.043C65.429,72.138,62.79,77.766,63.621,85,64.482,92.276,67.8,96.755,73.76,98.7a13.9,13.9,0,0,0,4.271.722,11.107,11.107,0,0,0,7.141-2.63,1.618,1.618,0,0,1,.9-.457c.293,0,.523.22.9.683a4.546,4.546,0,0,0,5.237,1.459,4.406,4.406,0,0,0,3.106-4.228c.067-6.639.12-14.5,0-22.449a4.49,4.49,0,0,0-4.678-4.413,5.471,5.471,0,0,0-1.084.11,5.762,5.762,0,0,0-3.367,2.544A12.291,12.291,0,0,0,78.035,66.685ZM104.151,54.1h-.084a4.44,4.44,0,0,0-4.64,4.751c-.025,1.172-.016,2.348-.008,3.486,0,.572.008,1.164.008,1.752V93.834a4.864,4.864,0,0,0,3.293,4.827,5.763,5.763,0,0,0,1.307.15h.077a4.883,4.883,0,0,0,4.714-4.938c.025-3.866.017-7.8.008-11.6,0-1.9-.008-3.862-.008-5.8s0-3.929.008-5.843v-.008c.008-3.838.017-7.807-.008-11.7a4.911,4.911,0,0,0-1.285-3.524A4.593,4.593,0,0,0,104.151,54.1ZM49.345,65.66a.729.729,0,0,1,.694.413c-.337.411-.679.867-1.009,1.308-6.079,7.686-12.187,15.454-17.361,22.039-1.668,2.149-2.035,4.144-1.122,6.1,1.066,2.284,3.3,2.7,5.351,2.806.666.042,1.377.062,2.236.062.5,0,1-.006,1.487-.012h.013c.491-.006,1-.013,1.5-.013,1.521,0,3.065,0,4.558,0H45.7c1.489,0,3.029,0,4.557,0,3.628,0,6.41-.014,9.019-.046a4.8,4.8,0,0,0,3.669-1.434,4.44,4.44,0,0,0,.933-3.543c-.3-2.371-1.938-3.592-4.865-3.63-1.6-.011-3.28-.016-5.3-.016-1.766,0-3.488,0-5.312.008h-.071c-1.8,0-3.671.008-5.557.008.607-.834.982-1.32,1.383-1.8,4.929-6.208,9.876-12.477,14.705-18.633a26.573,26.573,0,0,0,3.741-5.8,4.3,4.3,0,0,0,.028-3.436A4.352,4.352,0,0,0,59.99,57.8a12.382,12.382,0,0,0-3.185-.416c-.11,0-.221,0-.331,0-3.315-.019-6.683-.028-10.008-.028s-6.693.01-10.008.028h-.011a11.444,11.444,0,0,0-2.757.337,3.921,3.921,0,0,0,.075,7.633,13.653,13.653,0,0,0,2.768.3c2.021.019,4.084.019,6.08.019s4.059,0,6.08.019c.026,0,.054,0,.083,0a2.543,2.543,0,0,0,.27-.02l.015,0A2.65,2.65,0,0,1,49.345,65.66Zm30.1,25.012h0a6.133,6.133,0,0,1-4.931-2.45,8.135,8.135,0,0,1-1.571-4.527,8.874,8.874,0,0,1,2.209-6.482,5.893,5.893,0,0,1,4.283-1.727c.15,0,.3,0,.468.015a5.644,5.644,0,0,1,4.452,2.357,9.333,9.333,0,0,1,0,10.364,6.425,6.425,0,0,1-1.236,1.235A6.127,6.127,0,0,1,79.44,90.672Zm48.532,0h0a6.058,6.058,0,0,1-4.861-2.409,8.308,8.308,0,0,1-1.61-5.238,8.192,8.192,0,0,1,1.8-5.459,5.982,5.982,0,0,1,4.669-2.073c.141,0,.279,0,.412.012a5.771,5.771,0,0,1,4.453,2.357,9.322,9.322,0,0,1-.038,10.476,7.165,7.165,0,0,1-1.085,1.048l-.055.041A6.045,6.045,0,0,1,127.972,90.669Z" transform="translate(6312.541 10582.575)" fill="#fff"/>
  </g>
</svg>
