<?xml version="1.0" encoding="utf-8"?>
<!-- Generator: Adobe Illustrator 22.1.0, SVG Export Plug-In . SVG Version: 6.00 Build 0)  -->
<svg version="1.1" id="Layer_1" xmlns="http://www.w3.org/2000/svg" xmlns:xlink="http://www.w3.org/1999/xlink" x="0px" y="0px"
	 viewBox="0 0 256 256" style="enable-background:new 0 0 256 256;" xml:space="preserve">
<style type="text/css">
	.st0{fill:#FFA730;}
	.st1{fill:#E58D23;}
	.st2{fill:#FFB74B;}
	.st3{fill:#BF6C0D;}
	.st4{fill:#A56021;}
	.st5{fill:#CCC033;}
	.st6{fill:#99AF17;}
	.st7{fill:#EACF32;}
	.st8{fill:#FCDA4F;}
	.st9{fill:#FFDF74;}
	.st10{fill:#FCE575;}
	.st11{fill:#FFD551;}
	.st12{fill:#FFC34C;}
	.st13{fill:#F9BB32;}
	.st14{fill:#FFF4C1;}
	.st15{fill:#DB9C2E;}
	.st16{fill:#8C4C17;}
	.st17{fill:#FF624B;}
	.st18{fill:#FF4B34;}
	.st19{fill:#FF9079;}
	.st20{fill:#FFD59A;}
	.st21{fill:#FFEACF;}
	.st22{fill:#FCF9DE;}
</style>
<g>
	<g>
		<g>
			<path class="st13" d="M224.989,217.185H23.107c-7.764,0-14.059-6.294-14.059-14.059V21.243c0-7.764,6.294-14.059,14.059-14.059
				h201.883c7.764,0,14.059,6.294,14.059,14.059v181.883C239.048,210.891,232.754,217.185,224.989,217.185z"/>
		</g>
	</g>
	<g>
		<g>
			<g>
				<path class="st4" d="M218.877,181.832h-3.843v17.705c0,0.627-0.627,1.135-1.399,1.135h-12.42c-0.773,0-1.399-0.508-1.399-1.135
					v-17.705h-3.887c-0.456,0-0.695-0.438-0.388-0.712l11.612-10.358c0.064-0.057,0.155-0.09,0.251-0.09
					c0.096,0,0.187,0.033,0.251,0.09l11.612,10.358C219.572,181.394,219.333,181.832,218.877,181.832z"/>
			</g>
		</g>
	</g>
	<g>
		<g>
			<path class="st12" d="M231.048,124.714c-1.657,0-3-1.343-3-3v-100c0-1.657,1.343-3,3-3s3,1.343,3,3v100
				C234.048,123.371,232.705,124.714,231.048,124.714z"/>
		</g>
	</g>
	<g>
		<g>
			<path class="st4" d="M152.277,182.088h-48.045c-2.209,0-4-1.791-4-4s1.791-4,4-4h48.045c2.209,0,4,1.791,4,4
				S154.486,182.088,152.277,182.088z"/>
		</g>
	</g>
	<g>
		<g>
			<path class="st4" d="M152.277,197.927h-48.045c-2.209,0-4-1.791-4-4s1.791-4,4-4h48.045c2.209,0,4,1.791,4,4
				S154.486,197.927,152.277,197.927z"/>
		</g>
	</g>
	<g>
		<g>
			<path class="st4" d="M61.732,198.698H20.983c-1.824,0-3.302-1.478-3.302-3.302V176.21c0-1.824,1.478-3.302,3.302-3.302h40.749
				c1.824,0,3.302,1.478,3.302,3.302v19.185C65.034,197.219,63.555,198.698,61.732,198.698z"/>
		</g>
	</g>
	<g>
		<g>
			<circle class="st15" cx="55.454" cy="21.714" r="9"/>
		</g>
	</g>
	<g>
		<g>
			<path class="st15" d="M37.048,203.126V21.243c0-7.764,6.294-14.059,14.059-14.059h-28c-7.764,0-14.059,6.294-14.059,14.059
				v181.883c0,7.764,6.294,14.059,14.059,14.059h28C43.342,217.185,37.048,210.891,37.048,203.126z"/>
		</g>
	</g>
	<g>
		<g>
			<path class="st16" d="M20.983,172.908c-1.824,0-3.302,1.478-3.302,3.302v19.185c0,1.824,1.478,3.302,3.302,3.302h16.065v-25.789
				H20.983z"/>
		</g>
	</g>
	<g>
		<g>
			<path class="st9" d="M157.427,100.25V7.185H96.28v93.066c5.087,0,5.087,9.307,10.174,9.307c5.093,0,5.093-9.307,10.185-9.307
				c5.093,0,5.093,9.307,10.187,9.307c5.095,0,5.095-9.307,10.189-9.307c5.103,0,5.103,9.307,10.206,9.307
				S152.324,100.25,157.427,100.25z"/>
		</g>
	</g>
	<g>
		<g>
			<path class="st14" d="M149.427,98.39c-1.657,0-3-1.343-3-3V15.185c0-1.657,1.343-3,3-3s3,1.343,3,3V95.39
				C152.427,97.047,151.084,98.39,149.427,98.39z"/>
		</g>
	</g>
	<g>
		<g>
			<path class="st5" d="M242.892,248.949H101.108c-2.269,0-4.108-1.839-4.108-4.108v-71.784c0-2.269,1.839-4.108,4.108-4.108
				h141.784c2.269,0,4.108,1.839,4.108,4.108v71.784C247,247.109,245.161,248.949,242.892,248.949z"/>
		</g>
	</g>
	<g>
		<g>
			<path class="st6" d="M124,244.98v-72.063c0-2.192,1.777-3.969,3.969-3.969h-28c-2.192,0-3.969,1.777-3.969,3.969v72.063
				c0,2.192,1.777,3.968,3.969,3.968h28C125.777,248.948,124,247.172,124,244.98z"/>
		</g>
	</g>
	<g>
		<g>
			<circle class="st8" cx="172" cy="210.62" r="30"/>
		</g>
	</g>
	<g>
		<g>
			<path class="st5" d="M96,232.656v12.324c0,2.192,1.777,3.968,3.969,3.968h10.244c0.039-0.438,0.067-0.88,0.067-1.328
				C110.28,239.579,103.948,233.035,96,232.656z"/>
		</g>
	</g>
	<g>
		<g>
			<path class="st7" d="M247,232.656c-0.24-0.011-0.477-0.036-0.72-0.036c-8.284,0-15,6.716-15,15c0,0.448,0.029,0.89,0.067,1.328
				h11.684c2.192,0,3.969-1.776,3.969-3.968V232.656z"/>
		</g>
	</g>
	<g>
		<g>
			<path class="st7" d="M243.031,168.948h-11.717c-0.01,0.225-0.034,0.445-0.034,0.672c0,8.284,6.716,15,15,15
				c0.243,0,0.48-0.025,0.72-0.037v-11.667C247,170.725,245.223,168.948,243.031,168.948z"/>
		</g>
	</g>
	<g>
		<g>
			<path class="st5" d="M96,172.917v11.667c7.948-0.378,14.28-6.922,14.28-14.963c0-0.227-0.024-0.447-0.034-0.672H99.969
				C97.777,168.948,96,170.725,96,172.917z"/>
		</g>
	</g>
	<g>
		<g>
			<g>
				<path class="st6" d="M170.001,229.928c-5.655-0.81-9.755-4.118-10.242-9.523c-0.053-0.587,0.411-1.098,1.001-1.098h4.563
					c0.475,0,0.894,0.334,0.976,0.802c0.339,1.941,1.37,3.451,3.175,4.225c0.663,0.284,1.407-0.199,1.407-0.921V213.17
					c0-0.453-0.305-0.849-0.743-0.966c-5.107-1.367-10.428-3.147-10.428-10.697c0-6.006,4.171-10.219,10.292-11.125
					c0.499-0.074,0.879-0.485,0.879-0.99v-2.72c0-0.552,0.448-1,1-1h1.457c0.552,0,1,0.448,1,1v2.662
					c0,0.506,0.381,0.918,0.882,0.99c5.256,0.755,8.896,3.851,9.728,9.166c0.096,0.613-0.371,1.174-0.991,1.174h-4.521
					c-0.462,0-0.862-0.316-0.966-0.766c-0.337-1.466-1.235-2.793-2.629-3.611c-0.663-0.389-1.503,0.105-1.503,0.873v9.859
					c0,0.457,0.31,0.855,0.752,0.968c5.099,1.313,10.365,3.045,10.365,10.59c0,5.22-3.616,10.286-10.239,11.292
					c-0.5,0.076-0.878,0.487-0.878,0.993v2.719c0,0.552-0.448,1-1,1h-1.457c-0.552,0-1-0.448-1-1v-2.662
					C170.882,230.413,170.502,230,170.001,229.928z M170.882,205.384v-8.636c0-0.691-0.682-1.163-1.338-0.946
					c-2.2,0.726-3.663,2.493-3.663,5.369c0,2.683,1.444,4.147,3.56,5.113C170.114,206.591,170.882,206.123,170.882,205.384z
					 M174.339,214.81v8.63c0,0.72,0.733,1.188,1.401,0.921c2.314-0.924,3.599-2.986,3.599-5.446c0-2.64-1.447-4.057-3.565-5.008
					C175.102,213.605,174.339,214.073,174.339,214.81z"/>
			</g>
		</g>
	</g>
	<g>
		<g>
			<circle class="st6" cx="137" cy="238" r="9"/>
		</g>
	</g>
</g>
</svg>
