<?xml version="1.0" encoding="utf-8"?>
<!-- Generator: Adobe Illustrator 22.1.0, SVG Export Plug-In . SVG Version: 6.00 Build 0)  -->
<svg version="1.1" id="Layer_1" xmlns="http://www.w3.org/2000/svg" xmlns:xlink="http://www.w3.org/1999/xlink" x="0px" y="0px"
	 viewBox="0 0 256 256" style="enable-background:new 0 0 256 256;" xml:space="preserve">
<style type="text/css">
	.st0{fill:#FFA730;}
	.st1{fill:#E58D23;}
	.st2{fill:#FFB74B;}
	.st3{fill:#BF6C0D;}
	.st4{fill:#A56021;}
	.st5{fill:#CCC033;}
	.st6{fill:#99AF17;}
	.st7{fill:#EACF32;}
	.st8{fill:#FCDA4F;}
	.st9{fill:#FFDF74;}
	.st10{fill:#FCE575;}
	.st11{fill:#FFD551;}
	.st12{fill:#FFC34C;}
	.st13{fill:#F9BB32;}
	.st14{fill:#FFF4C1;}
	.st15{fill:#DB9C2E;}
	.st16{fill:#8C4C17;}
	.st17{fill:#FF624B;}
	.st18{fill:#FF4B34;}
	.st19{fill:#FF9079;}
	.st20{fill:#FFD59A;}
	.st21{fill:#FFEACF;}
	.st22{fill:#FCF9DE;}
</style>
<g>
	<g>
		<g>
			<path class="st2" d="M126.442,5.375c-7.687,0-13.919,6.232-13.919,13.919V30.82c0,1.322,1.072,2.393,2.393,2.393h23.052
				c1.322,0,2.393-1.071,2.393-2.393V19.294C140.361,11.607,134.129,5.375,126.442,5.375z M126.442,25.073c-4.418,0-8-3.582-8-8
				c0-4.418,3.582-8,8-8c4.418,0,8,3.582,8,8C134.442,21.491,130.86,25.073,126.442,25.073z"/>
		</g>
	</g>
	<g>
		<g>
			<path class="st3" d="M198.832,250.625H54.052c-4.203,0-7.61-3.407-7.61-7.61V39.722c0-4.203,3.407-7.61,7.61-7.61h144.781
				c4.203,0,7.61,3.407,7.61,7.61v203.293C206.442,247.218,203.035,250.625,198.832,250.625z"/>
		</g>
	</g>
	<g>
		<g>
			<path class="st1" d="M198.442,245.625c-1.657,0-3-1.343-3-3v-101.43c0-1.657,1.343-3,3-3s3,1.343,3,3v101.43
				C201.442,244.282,200.1,245.625,198.442,245.625z"/>
		</g>
	</g>
	<g>
		<g>
			<path class="st4" d="M74.442,243.015V39.722c0-4.203,3.407-7.609,7.61-7.609h-28c-4.203,0-7.61,3.407-7.61,7.609v203.293
				c0,4.203,3.407,7.61,7.61,7.61h28C77.849,250.625,74.442,247.218,74.442,243.015z"/>
		</g>
	</g>
	<g>
		<g>
			<path class="st14" d="M60.728,230.667V52.07c0-3.152,2.555-5.707,5.707-5.707h120.014c3.152,0,5.707,2.555,5.707,5.707v178.596
				c0,3.152-2.555,5.707-5.707,5.707H66.435C63.283,236.374,60.728,233.819,60.728,230.667z"/>
		</g>
	</g>
	<g>
		<g>
			<path class="st10" d="M66.435,46.363c-3.152,0-5.707,2.555-5.707,5.708v178.596c0,3.152,2.555,5.708,5.707,5.708h8.007V46.363
				H66.435z"/>
		</g>
	</g>
	<g>
		<g>
			<path class="st12" d="M89.098,90.18H74.089c-1.91,0-3.458-1.548-3.458-3.458V71.766c0-1.91,1.548-3.458,3.458-3.458h15.009
				c1.91,0,3.458,1.548,3.458,3.458v14.956C92.556,88.632,91.008,90.18,89.098,90.18z"/>
		</g>
	</g>
	<g>
		<g>
			<path class="st4" d="M180.759,83.244H103.52c-2.209,0-4-1.791-4-4s1.791-4,4-4h77.239c2.209,0,4,1.791,4,4
				S182.968,83.244,180.759,83.244z"/>
		</g>
	</g>
	<g>
		<g>
			<path class="st12" d="M89.098,150.448H74.089c-1.91,0-3.458-1.548-3.458-3.458v-14.956c0-1.91,1.548-3.458,3.458-3.458h15.009
				c1.91,0,3.458,1.548,3.458,3.458v14.956C92.556,148.9,91.008,150.448,89.098,150.448z"/>
		</g>
	</g>
	<g>
		<g>
			<path class="st4" d="M180.759,143.512H103.52c-2.209,0-4-1.791-4-4s1.791-4,4-4h77.239c2.209,0,4,1.791,4,4
				S182.968,143.512,180.759,143.512z"/>
		</g>
	</g>
	<g>
		<g>
			<path class="st12" d="M89.098,182.216H74.089c-1.91,0-3.458-1.548-3.458-3.458v-14.956c0-1.91,1.548-3.458,3.458-3.458h15.009
				c1.91,0,3.458,1.548,3.458,3.458v14.956C92.556,180.668,91.008,182.216,89.098,182.216z"/>
		</g>
	</g>
	<g>
		<g>
			<path class="st4" d="M180.759,175.28H103.52c-2.209,0-4-1.791-4-4s1.791-4,4-4h77.239c2.209,0,4,1.791,4,4
				S182.968,175.28,180.759,175.28z"/>
		</g>
	</g>
	<g>
		<g>
			<path class="st0" d="M159.438,58.125H93.446c-2.816,0-5.1-2.283-5.1-5.1V32.81c0-2.816,2.283-5.1,5.1-5.1h65.991
				c2.816,0,5.1,2.283,5.1,5.1v20.215C164.537,55.842,162.254,58.125,159.438,58.125z"/>
		</g>
	</g>
	<g>
		<g>
			<path class="st2" d="M74.442,160.344h-0.353c-1.91,0-3.458,1.549-3.458,3.458v14.956c0,1.91,1.548,3.458,3.458,3.458h0.353
				V160.344z"/>
		</g>
	</g>
	<g>
		<g>
			<path class="st2" d="M74.442,128.576h-0.353c-1.91,0-3.458,1.548-3.458,3.458v14.956c0,1.91,1.548,3.458,3.458,3.458h0.353
				V128.576z"/>
		</g>
	</g>
	<g>
		<g>
			<path class="st2" d="M74.442,68.308h-0.353c-1.91,0-3.458,1.549-3.458,3.458v14.956c0,1.91,1.548,3.458,3.458,3.458h0.353V68.308
				z"/>
		</g>
	</g>
	<g>
		<g>
			<g>
				<path class="st4" d="M180.758,107.244H70.63c-2.209,0-4-1.791-4-4s1.791-4,4-4h110.128c2.209,0,4,1.791,4,4
					S182.967,107.244,180.758,107.244z"/>
			</g>
		</g>
	</g>
	<g>
		<g>
			<g>
				<path class="st4" d="M180.758,121.244H70.63c-2.209,0-4-1.791-4-4s1.791-4,4-4h110.128c2.209,0,4,1.791,4,4
					S182.967,121.244,180.758,121.244z"/>
			</g>
		</g>
	</g>
	<g>
		<g>
			<g>
				<path class="st4" d="M180.758,199.244H70.63c-2.209,0-4-1.791-4-4s1.791-4,4-4h110.128c2.209,0,4,1.791,4,4
					S182.967,199.244,180.758,199.244z"/>
			</g>
		</g>
	</g>
	<g>
		<g>
			<g>
				<path class="st4" d="M180.758,213.244H70.63c-2.209,0-4-1.791-4-4s1.791-4,4-4h110.128c2.209,0,4,1.791,4,4
					S182.967,213.244,180.758,213.244z"/>
			</g>
		</g>
	</g>
	<g>
		<g>
			<path class="st16" d="M74.442,205.244H70.63c-2.209,0-4,1.791-4,4s1.791,4,4,4h3.812V205.244z"/>
		</g>
	</g>
	<g>
		<g>
			<path class="st16" d="M74.442,191.244H70.63c-2.209,0-4,1.791-4,4s1.791,4,4,4h3.812V191.244z"/>
		</g>
	</g>
	<g>
		<g>
			<path class="st16" d="M74.442,113.244H70.63c-2.209,0-4,1.791-4,4s1.791,4,4,4h3.812V113.244z"/>
		</g>
	</g>
	<g>
		<g>
			<path class="st16" d="M74.442,99.244H70.63c-2.209,0-4,1.791-4,4s1.791,4,4,4h3.812V99.244z"/>
		</g>
	</g>
	<g>
		<g>
			<path class="st1" d="M108.347,53.316V32.52c0-2.656,2.421-4.809,5.408-4.809h-20c-2.987,0-5.408,2.153-5.408,4.809v20.796
				c0,2.656,2.421,4.809,5.408,4.809h20C110.768,58.125,108.347,55.972,108.347,53.316z"/>
		</g>
	</g>
	<g>
		<g>
			<circle class="st1" cx="120.381" cy="46.363" r="9"/>
		</g>
	</g>
	<g>
		<g>
			<circle class="st10" cx="88.347" cy="224.368" r="9"/>
		</g>
	</g>
	<g>
		<g>
			<path class="st12" d="M201.216,75.893l-6.788-6.788l7.016-7.016c1.767-1.767,4.633-1.767,6.4,0l0.388,0.388
				c1.767,1.767,1.767,4.633,0,6.4L201.216,75.893z"/>
		</g>
	</g>
	<g>
		<g>
			<path class="st2" d="M209.41,66.003c0.092-1.336-0.352-2.7-1.371-3.72c-1.875-1.875-4.919-1.869-6.8,0.011l-6.811,6.811
				l5.091,5.091l6.811-6.811C207.188,66.527,208.289,66.08,209.41,66.003z"/>
		</g>
	</g>
	<g>
		<g>
			<path class="st11" d="M111.708,170.493l-11.879-11.879l91.95-91.95c0.939-0.939,2.461-0.939,3.4,0l8.48,8.48
				c0.939,0.939,0.939,2.461,0,3.4L111.708,170.493z"/>
		</g>
	</g>
	<g>
		<g>
			<path class="st10" d="M99.828,158.613l11.879,11.879l-15.577,5.215c-0.938,0.314-1.832-0.579-1.518-1.518L99.828,158.613z"/>
		</g>
	</g>
	<g>
		<g>
			<path class="st12" d="M200.267,71.751l-5.091-5.091c-0.937-0.937-2.459-0.935-3.4,0.006l-91.948,91.948l5.091,5.091
				l91.948-91.947C197.808,70.817,199.33,70.814,200.267,71.751z"/>
		</g>
	</g>
	<g>
		<g>
			<path class="st5" d="M186.451,95.75L169.48,78.779l6.893-6.893c0.895-0.895,2.346-0.895,3.242,0l15.35,15.35L186.451,95.75z"/>
		</g>
	</g>
	<g>
		<g>
			<path class="st6" d="M134.119,117.825l-0.715-0.715c-0.623-0.623-0.623-1.632,0-2.255l42.999-42.999
				c0.878-0.878,2.302-0.878,3.18,0l1.38,1.38l-44.589,44.589C135.752,118.447,134.742,118.447,134.119,117.825z"/>
		</g>
	</g>
	<g>
		<g>
			<path class="st6" d="M189.873,82.145l-10.394-10.394c-0.82-0.82-2.247-0.723-3.188,0.218l-6.811,6.811l10.394,10.394l6.811-6.811
				C187.626,81.422,189.053,81.325,189.873,82.145z"/>
		</g>
	</g>
	<g>
		<g>
			<path class="st11" d="M105.01,163.795l-5.182-5.182l-5.216,15.577c-0.314,0.938,0.579,1.832,1.518,1.518l5.508-1.844
				L105.01,163.795z"/>
		</g>
	</g>
	<g>
		<g>
			<path class="st5" d="M82.052,178.772c-0.017,0-0.032,0-0.049,0c-0.997-0.016-1.921-0.527-2.465-1.363l-6.118-9.397
				c-0.904-1.389-0.512-3.247,0.877-4.151c1.388-0.904,3.248-0.511,4.15,0.877l3.691,5.669l9.95-14.25
				c0.949-1.358,2.818-1.692,4.178-0.742c1.358,0.948,1.69,2.818,0.742,4.177L84.512,177.49
				C83.95,178.294,83.031,178.772,82.052,178.772z"/>
		</g>
	</g>
	<g>
		<g>
			<path class="st5" d="M82.052,146.772c-0.017,0-0.032,0-0.049,0c-0.997-0.016-1.921-0.527-2.465-1.363l-6.118-9.397
				c-0.904-1.389-0.512-3.247,0.877-4.151c1.388-0.905,3.248-0.511,4.15,0.877l3.691,5.669l9.95-14.25
				c0.949-1.358,2.818-1.692,4.178-0.742c1.358,0.948,1.69,2.818,0.742,4.177L84.512,145.49
				C83.95,146.294,83.031,146.772,82.052,146.772z"/>
		</g>
	</g>
	<g>
		<g>
			<path class="st5" d="M82.052,86.772c-0.017,0-0.032,0-0.049,0c-0.997-0.016-1.921-0.527-2.465-1.363l-6.118-9.397
				c-0.904-1.389-0.512-3.247,0.877-4.151c1.388-0.905,3.248-0.511,4.15,0.877l3.691,5.669l9.95-14.25
				c0.949-1.358,2.818-1.692,4.178-0.742c1.358,0.948,1.69,2.818,0.742,4.177L84.512,85.49
				C83.95,86.294,83.031,86.772,82.052,86.772z"/>
		</g>
	</g>
</g>
</svg>
