<?xml version="1.0" encoding="utf-8"?>
<!-- Generator: Adobe Illustrator 22.1.0, SVG Export Plug-In . SVG Version: 6.00 Build 0)  -->
<svg version="1.1" id="Layer_1" xmlns="http://www.w3.org/2000/svg" xmlns:xlink="http://www.w3.org/1999/xlink" x="0px" y="0px"
	 viewBox="0 0 256 256" style="enable-background:new 0 0 256 256;" xml:space="preserve">
<style type="text/css">
	.st0{fill:#FFA730;}
	.st1{fill:#E58D23;}
	.st2{fill:#FFB74B;}
	.st3{fill:#BF6C0D;}
	.st4{fill:#A56021;}
	.st5{fill:#CCC033;}
	.st6{fill:#99AF17;}
	.st7{fill:#EACF32;}
	.st8{fill:#FCDA4F;}
	.st9{fill:#FFDF74;}
	.st10{fill:#FCE575;}
	.st11{fill:#FFD551;}
	.st12{fill:#FFC34C;}
	.st13{fill:#F9BB32;}
	.st14{fill:#FFF4C1;}
	.st15{fill:#DB9C2E;}
	.st16{fill:#8C4C17;}
	.st17{fill:#FF624B;}
	.st18{fill:#FF4B34;}
	.st19{fill:#FF9079;}
	.st20{fill:#FFD59A;}
	.st21{fill:#FFEACF;}
	.st22{fill:#FCF9DE;}
</style>
<g>
	<g>
		<g>
			<path class="st12" d="M175.804,58.331h-28.596c-4.089,0-7.404-3.315-7.404-7.404v-1.193c0-4.089,3.315-7.404,7.404-7.404h28.596
				V58.331z"/>
		</g>
	</g>
	<g>
		<g>
			<path class="st2" d="M151.804,54.928v-1.193c0-4.089,3.315-7.404,7.404-7.404h16.596v-4h-28.596
				c-4.089,0-7.404,3.315-7.404,7.404v1.193c0,4.089,3.315,7.403,7.404,7.403h5.429C152.108,57.312,151.804,56.156,151.804,54.928z"
				/>
		</g>
	</g>
	<g>
		<g>
			<rect x="185.02" y="46.797" class="st17" width="14.571" height="34.458"/>
		</g>
	</g>
	<g>
		<g>
			<path class="st11" d="M207.057,81.255h-7.466V46.797h7.466c3.772,0,6.829,3.057,6.829,6.829v20.8
				C213.886,78.197,210.829,81.255,207.057,81.255z"/>
		</g>
	</g>
	<g>
		<g>
			<path class="st18" d="M199.797,86.472L199.797,86.472c-1.769,0-3.203-1.434-3.203-3.203V45.534c0-1.769,1.434-3.203,3.203-3.203
				h0c1.769,0,3.203,1.434,3.203,3.203v37.735C203,85.038,201.566,86.472,199.797,86.472z"/>
		</g>
	</g>
	<g>
		<g>
			<path class="st19" d="M191.446,63.142h-0.053l-1.251-24.052c-0.097-1.873-1.543-3.338-3.294-3.338H171.46
				c-1.673,0-3.082,1.342-3.277,3.122l-2.657,24.267l-7.614,85.652c-0.361,4.067-3.509,7.134-7.323,7.134h-45.156v37.875h65.054
				c0.163,0.009,0.459,0.022,0.869,0.022c3.925,0,23.578-1.333,25.225-27.609l0.013-0.213L191.446,63.142z"/>
		</g>
	</g>
	<g>
		<g>
			<path class="st17" d="M117.433,163.928h45.156c3.814,0,6.962-3.066,7.323-7.134l7.614-85.651l2.657-24.268
				c0.195-1.78,1.603-3.122,3.276-3.122h6.925l-0.242-4.663c-0.097-1.873-1.543-3.337-3.294-3.337H171.46
				c-1.673,0-3.082,1.342-3.276,3.122l-2.657,24.268l-7.614,85.651c-0.361,4.067-3.509,7.134-7.323,7.134h-45.156v37.875h12V163.928
				z"/>
		</g>
	</g>
	<g>
		<g>
			<circle class="st3" cx="59.385" cy="193.247" r="27"/>
		</g>
	</g>
	<g>
		<g>
			<path class="st4" d="M44.385,193.247c0-12.849,8.978-23.593,21-26.323c-1.931-0.438-3.937-0.677-6-0.677
				c-14.912,0-27,12.088-27,27s12.088,27,27,27c2.063,0,4.069-0.239,6-0.678C53.362,216.84,44.385,206.096,44.385,193.247z"/>
		</g>
	</g>
	<g>
		<g>
			<path class="st4" d="M59.385,166.247c-14.912,0-27,12.088-27,27c0,1.553,0.138,3.074,0.39,4.556h53.219
				c0.252-1.482,0.39-3.002,0.39-4.556C86.385,178.335,74.296,166.247,59.385,166.247z"/>
		</g>
	</g>
	<g>
		<g>
			<circle class="st12" cx="59.385" cy="193.247" r="15"/>
		</g>
	</g>
	<g>
		<g>
			<path class="st15" d="M52.385,193.247c0-6.885,4.667-12.686,11-14.442c-1.276-0.354-2.613-0.558-4-0.558c-8.271,0-15,6.729-15,15
				s6.729,15,15,15c1.387,0,2.724-0.204,4-0.558C57.052,205.933,52.385,200.132,52.385,193.247z"/>
		</g>
	</g>
	<g>
		<g>
			<path class="st15" d="M59.385,178.247c-8.271,0-15,6.729-15,15c0,1.588,0.252,3.118,0.712,4.556h28.576
				c0.459-1.438,0.712-2.967,0.712-4.556C74.385,184.976,67.656,178.247,59.385,178.247z"/>
		</g>
	</g>
	<g>
		<g>
			<path class="st17" d="M95.499,121.461H59.737c-27.979,0-50.661,27.595-50.661,61.635v6.706c0,2.209,1.791,4,4,4h82.423h19.172
				c2.209,0,4-1.791,4-4v-54.205c0-7.807-6.264-14.136-13.991-14.136H95.499z"/>
		</g>
	</g>
	<g>
		<g>
			<path class="st4" d="M19.935,100.684v-31.25c0-1.367-1.108-2.474-2.474-2.474s-2.474,1.107-2.474,2.474v31.25v5.15v0.15h36.289
				v-5.301H19.935z"/>
		</g>
	</g>
	<g>
		<g>
			<path class="st13" d="M73.983,100.772H23.618c-2.034,0-3.683-1.649-3.683-3.683V47.026c0-2.034,1.649-3.683,3.683-3.683h50.365
				c2.034,0,3.683,1.649,3.683,3.683v50.063C77.667,99.123,76.017,100.772,73.983,100.772z"/>
		</g>
	</g>
	<g>
		<g>
			<path class="st12" d="M73.795,70.705c-1.104,0-2-0.896-2-2v-21.27c0-1.104,0.896-2,2-2s2,0.896,2,2v21.27
				C75.795,69.81,74.899,70.705,73.795,70.705z"/>
		</g>
	</g>
	<g>
		<g>
			<path class="st9" d="M56.187,68.794V43.343H40.839v25.451c1.277,0,1.277,2.545,2.554,2.545c1.278,0,1.278-2.545,2.557-2.545
				c1.278,0,1.278,2.545,2.557,2.545c1.279,0,1.279-2.545,2.558-2.545c1.281,0,1.281,2.545,2.562,2.545
				C54.906,71.339,54.906,68.794,56.187,68.794z"/>
		</g>
	</g>
	<g>
		<g>
			<path class="st14" d="M53.47,67.909c-0.553,0-1-0.448-1-1V46.179c0-0.552,0.447-1,1-1s1,0.448,1,1v20.729
				C54.47,67.461,54.022,67.909,53.47,67.909z"/>
		</g>
	</g>
	<g>
		<g>
			<path class="st4" d="M73.751,91.524h-12.06c-0.828,0-1.5-0.671-1.5-1.5s0.672-1.5,1.5-1.5h12.06c0.828,0,1.5,0.671,1.5,1.5
				S74.579,91.524,73.751,91.524z"/>
		</g>
	</g>
	<g>
		<g>
			<path class="st4" d="M73.751,95.856h-12.06c-0.828,0-1.5-0.671-1.5-1.5s0.672-1.5,1.5-1.5h12.06c0.828,0,1.5,0.671,1.5,1.5
				S74.579,95.856,73.751,95.856z"/>
		</g>
	</g>
	<g>
		<g>
			<path class="st3" d="M112.962,123.345H37.903c-3.585,0-6.491-2.906-6.491-6.491v-9.99c0-3.585,2.906-6.491,6.491-6.491h75.059
				c3.585,0,6.491,2.906,6.491,6.491v9.99C119.453,120.439,116.547,123.345,112.962,123.345z"/>
		</g>
	</g>
	<g>
		<g>
			<path class="st1" d="M111.453,118.345c-1.657,0-3-1.343-3-3v-6.972c0-1.657,1.343-3,3-3s3,1.343,3,3v6.972
				C114.453,117.001,113.11,118.345,111.453,118.345z"/>
		</g>
	</g>
	<g>
		<g>
			<path class="st17" d="M242.919,193.247c2.334,0,4.17-1.991,3.994-4.318c-2.058-27.219-23.393-48.694-49.322-48.694
				c-27.286,0-49.484,23.781-49.484,53.012l24.742,0c0-14.639,11.078-26.506,24.742-26.506c13.665,0,24.742,11.867,24.742,26.506
				L242.919,193.247z"/>
		</g>
	</g>
	<g>
		<g>
			<path class="st19" d="M238.414,188.248c-1.439,0-2.71-1.04-2.955-2.506c-1.908-11.425-8.228-21.609-17.339-27.942
				c-1.36-0.946-1.697-2.815-0.752-4.176c0.946-1.361,2.815-1.698,4.176-0.751c10.432,7.25,17.66,18.871,19.833,31.881
				c0.273,1.634-0.831,3.18-2.465,3.453C238.745,188.234,238.578,188.248,238.414,188.248z"/>
		</g>
	</g>
	<g>
		<g>
			<circle class="st3" cx="197.591" cy="193.247" r="27"/>
		</g>
	</g>
	<g>
		<g>
			<circle class="st12" cx="197.591" cy="193.247" r="15"/>
		</g>
	</g>
	<g>
		<g>
			<path class="st4" d="M59.412,116.854v-9.99c0-3.585,2.906-6.491,6.491-6.491h-28c-3.585,0-6.491,2.906-6.491,6.491v9.99
				c0,3.585,2.906,6.491,6.491,6.491h28C62.318,123.345,59.412,120.439,59.412,116.854z"/>
		</g>
	</g>
	<g>
		<g>
			<path class="st18" d="M37.075,191.096c0-34.04,22.682-61.635,50.661-61.635h29.532c-2.263-4.729-7.042-8-12.589-8h-9.182H59.737
				c-27.979,0-50.661,27.595-50.661,61.635v6.707c0,2.209,1.791,4,4,4h24V191.096z"/>
		</g>
	</g>
	<g>
		<g>
			<path class="st2" d="M97.679,135.586h-33c-1.381,0-2.5-1.119-2.5-2.5l0,0c0-1.381,1.119-2.5,2.5-2.5h33
				c1.381,0,2.5,1.119,2.5,2.5l0,0C100.179,134.467,99.06,135.586,97.679,135.586z"/>
		</g>
	</g>
	<g>
		<g>
			<path class="st2" d="M97.679,147.586h-33c-1.381,0-2.5-1.119-2.5-2.5l0,0c0-1.381,1.119-2.5,2.5-2.5h33
				c1.381,0,2.5,1.119,2.5,2.5l0,0C100.179,146.467,99.06,147.586,97.679,147.586z"/>
		</g>
	</g>
	<g>
		<g>
			<path class="st2" d="M97.679,159.586h-33c-1.381,0-2.5-1.119-2.5-2.5l0,0c0-1.381,1.119-2.5,2.5-2.5h33
				c1.381,0,2.5,1.119,2.5,2.5l0,0C100.179,158.467,99.06,159.586,97.679,159.586z"/>
		</g>
	</g>
	<g>
		<g>
			<path class="st15" d="M64.679,130.586c-1.381,0-2.5,1.119-2.5,2.5c0,1.38,1.119,2.5,2.5,2.5h1.019
				c3.887-2.289,8.053-3.979,12.416-5H64.679z"/>
		</g>
	</g>
	<g>
		<g>
			<g>
				<path class="st18" d="M217.591,148.235c2.326,0,4.613,0.18,6.854,0.514c-7.74-5.379-16.96-8.514-26.854-8.514
					c-27.286,0-49.485,23.781-49.485,53.012h20.564C172.282,167.799,192.843,148.235,217.591,148.235z"/>
			</g>
		</g>
	</g>
	<g>
		<g>
			<path class="st4" d="M182.591,193.247c0-12.849,8.978-23.593,21-26.323c-1.931-0.438-3.937-0.677-6-0.677
				c-14.912,0-27,12.088-27,27s12.088,27,27,27c2.063,0,4.069-0.239,6-0.678C191.568,216.84,182.591,206.096,182.591,193.247z"/>
		</g>
	</g>
	<g>
		<g>
			<path class="st15" d="M190.591,193.247c0-6.885,4.667-12.686,11-14.442c-1.276-0.354-2.613-0.558-4-0.558
				c-8.271,0-15,6.729-15,15s6.729,15,15,15c1.387,0,2.724-0.204,4-0.558C195.258,205.933,190.591,200.132,190.591,193.247z"/>
		</g>
	</g>
	<g>
		<g>
			<circle class="st18" cx="51.275" cy="181.205" r="9"/>
		</g>
	</g>
	<g>
		<g>
			<circle class="st17" cx="182.591" cy="130.776" r="9"/>
		</g>
	</g>
	<g>
		<g>
			<path class="st15" d="M31.935,97.089V47.026c0-2.034,1.649-3.684,3.684-3.684h-12c-2.034,0-3.684,1.649-3.684,3.684v50.063
				c0,2.034,1.649,3.684,3.684,3.684h12C33.584,100.772,31.935,99.123,31.935,97.089z"/>
		</g>
	</g>
	<g>
		<g>
			<path class="st4" d="M33.122,95.717H22.967c-0.478,0-0.865-0.387-0.865-0.865v-5.322c0-0.478,0.387-0.865,0.865-0.865h10.156
				c0.478,0,0.865,0.387,0.865,0.865v5.322C33.988,95.329,33.6,95.717,33.122,95.717z"/>
		</g>
	</g>
</g>
</svg>
