<?xml version="1.0" encoding="utf-8"?>
<!-- Generator: Adobe Illustrator 22.1.0, SVG Export Plug-In . SVG Version: 6.00 Build 0)  -->
<svg version="1.1" id="Layer_1" xmlns="http://www.w3.org/2000/svg" xmlns:xlink="http://www.w3.org/1999/xlink" x="0px" y="0px"
	 viewBox="0 0 256 256" style="enable-background:new 0 0 256 256;" xml:space="preserve">
<style type="text/css">
	.st0{fill:#FFA730;}
	.st1{fill:#E58D23;}
	.st2{fill:#FFB74B;}
	.st3{fill:#BF6C0D;}
	.st4{fill:#A56021;}
	.st5{fill:#CCC033;}
	.st6{fill:#99AF17;}
	.st7{fill:#EACF32;}
	.st8{fill:#FCDA4F;}
	.st9{fill:#FFDF74;}
	.st10{fill:#FCE575;}
	.st11{fill:#FFD551;}
	.st12{fill:#FFC34C;}
	.st13{fill:#F9BB32;}
	.st14{fill:#FFF4C1;}
	.st15{fill:#DB9C2E;}
	.st16{fill:#8C4C17;}
	.st17{fill:#FF624B;}
	.st18{fill:#FF4B34;}
	.st19{fill:#FF9079;}
	.st20{fill:#FFD59A;}
	.st21{fill:#FFEACF;}
	.st22{fill:#FCF9DE;}
</style>
<g>
	<g>
		<path class="st1" d="M167.254,173.333v-76.02c0-0.912,0.745-1.651,1.665-1.651h38.417c3.973,0,7.783,1.565,10.593,4.351
			l23.542,23.338c1.875,1.858,2.928,4.379,2.928,7.008v42.975H167.254z"/>
	</g>
	<g>
		<path class="st3" d="M196.919,95.662h-28c-0.919,0-1.665,0.739-1.665,1.651v76.02h28v-76.02
			C195.254,96.401,196,95.662,196.919,95.662z"/>
	</g>
	<g>
		<path class="st17" d="M160.867,179.74H45.982V85.582c0-1.81,1.467-3.277,3.277-3.277H157.59c1.81,0,3.277,1.467,3.277,3.277
			V179.74z"/>
	</g>
	<g>
		<path class="st0" d="M152.867,128.944c-1.657,0-3-1.343-3-3V90.306c0-1.657,1.343-3,3-3s3,1.343,3,3v35.638
			C155.867,127.601,154.524,128.944,152.867,128.944z"/>
	</g>
	<g>
		<path class="st13" d="M126.259,152.099H80.062c-1.692,0-3.064-1.372-3.064-3.064v-37.717c0-1.692,1.372-3.064,3.064-3.064h46.197
			c1.692,0,3.064,1.372,3.064,3.064v37.717C129.323,150.728,127.951,152.099,126.259,152.099z"/>
	</g>
	<g>
		<path class="st9" d="M109.855,127.685v-19.431H95.944v19.431c1.157,0,1.157,1.943,2.315,1.943c1.159,0,1.159-1.943,2.317-1.943
			c1.159,0,1.159,1.943,2.317,1.943c1.159,0,1.159-1.943,2.318-1.943c1.161,0,1.161,1.943,2.322,1.943
			S108.694,127.685,109.855,127.685z"/>
	</g>
	<g>
		<path class="st11" d="M90.848,148.854h-9.921c-0.457,0-0.827-0.37-0.827-0.827v-4.961c0-0.457,0.37-0.827,0.827-0.827h9.921
			c0.457,0,0.827,0.37,0.827,0.827v4.961C91.674,148.484,91.304,148.854,90.848,148.854z"/>
	</g>
	<g>
		<path class="st4" d="M125.773,144.894h-10.93c-0.552,0-1-0.448-1-1s0.448-1,1-1h10.93c0.552,0,1,0.448,1,1
			S126.326,144.894,125.773,144.894z"/>
	</g>
	<g>
		<path class="st4" d="M125.773,148.201h-10.93c-0.552,0-1-0.448-1-1s0.448-1,1-1h10.93c0.552,0,1,0.448,1,1
			S126.326,148.201,125.773,148.201z"/>
	</g>
	<g>
		<path class="st18" d="M77.258,82.306h-28c-1.81,0-3.277,1.467-3.277,3.277v94.158h28V85.582
			C73.982,83.773,75.449,82.306,77.258,82.306z"/>
	</g>
	<g>
		<path class="st9" d="M232.744,140.966v-8.555c0-0.876-0.351-1.717-0.976-2.336l-22.078-21.886
			c-0.628-0.623-1.464-0.966-2.354-0.966H182.24c-1.839,0-3.33,1.479-3.33,3.303v30.441c0,1.824,1.491,3.303,3.33,3.303h47.175
			C231.253,144.268,232.744,142.79,232.744,140.966z"/>
	</g>
	<g>
		<path class="st11" d="M244.261,196.453H40.576c-1.533,0-2.776-1.243-2.776-2.776v-10.962c0-1.533,1.243-2.776,2.776-2.776h203.684
			V196.453z"/>
	</g>
	<g>
		<path class="st13" d="M246.34,196.453h-78.348v-30h78.348c1.599,0,2.895,1.296,2.895,2.895v24.21
			C249.236,195.156,247.939,196.453,246.34,196.453z"/>
	</g>
	<g>
		<path class="st12" d="M241.235,191.452c-1.657,0-3-1.343-3-3v-14c0-1.657,1.343-3,3-3s3,1.343,3,3v14
			C244.235,190.109,242.893,191.452,241.235,191.452z"/>
	</g>
	<g>
		<path class="st0" d="M163.539,205.096h-37.247c-2.052,0-3.715-1.663-3.715-3.715v-17.925c0-2.052,1.663-3.715,3.715-3.715h37.247
			c2.052,0,3.715,1.663,3.715,3.715v17.925C167.254,203.433,165.591,205.096,163.539,205.096z"/>
	</g>
	<g>
		<path class="st12" d="M65.8,193.677v-10.962c0-1.533,1.243-2.776,2.776-2.776h-28c-1.533,0-2.776,1.243-2.776,2.776v10.962
			c0,1.533,1.243,2.776,2.776,2.776h28C67.043,196.453,65.8,195.209,65.8,193.677z"/>
	</g>
	<g>
		<ellipse class="st3" cx="78.732" cy="205.426" rx="24.975" ry="24.772"/>
	</g>
	<g>
		<ellipse class="st12" cx="78.732" cy="205.426" rx="12.488" ry="12.386"/>
	</g>
	<g>
		<path class="st4" d="M65.757,205.426c0-11.629,8.081-21.382,18.975-24.047c-1.922-0.471-3.931-0.725-6-0.725
			c-13.793,0-24.975,11.09-24.975,24.771c0,13.681,11.182,24.771,24.975,24.771c2.069,0,4.078-0.254,6-0.725
			C73.837,226.807,65.757,217.055,65.757,205.426z"/>
	</g>
	<g>
		<path class="st15" d="M74.244,205.426c0-5.441,3.56-10.063,8.488-11.723c-1.258-0.423-2.6-0.663-4-0.663
			c-6.886,0-12.488,5.556-12.488,12.386c0,6.83,5.602,12.386,12.488,12.386c1.4,0,2.742-0.24,4-0.664
			C77.804,215.489,74.244,210.867,74.244,205.426z"/>
	</g>
	<g>
		<path class="st1" d="M134.577,201.381v-17.925c0-2.052,1.663-3.715,3.715-3.715h-12c-2.052,0-3.715,1.664-3.715,3.715v17.925
			c0,2.052,1.663,3.716,3.715,3.716h12C136.24,205.097,134.577,203.433,134.577,201.381z"/>
	</g>
	<g>
		<path class="st12" d="M136.59,198.393L136.59,198.393c-1.839,0-3.33-1.491-3.33-3.33V179.74h6.66v15.323
			C139.92,196.903,138.43,198.393,136.59,198.393z"/>
	</g>
	<g>
		<path class="st12" d="M153.241,198.393L153.241,198.393c-1.839,0-3.33-1.491-3.33-3.33V179.74h6.66v15.323
			C156.571,196.903,155.08,198.393,153.241,198.393z"/>
	</g>
	<g>
		<circle class="st18" cx="86.393" cy="168.019" r="9"/>
	</g>
	<g>
		<path class="st11" d="M195.254,107.222H182.24c-1.839,0-3.33,1.479-3.33,3.303v30.441c0,1.824,1.491,3.303,3.33,3.303h13.015
			V107.222z"/>
	</g>
	<g>
		<rect x="167.236" y="166.453" class="st15" width="28.019" height="30"/>
	</g>
	<g>
		<ellipse class="st3" cx="206.937" cy="205.426" rx="24.975" ry="24.772"/>
	</g>
	<g>
		<ellipse class="st12" cx="206.937" cy="205.426" rx="12.488" ry="12.386"/>
	</g>
	<g>
		<path class="st4" d="M193.962,205.426c0-11.629,8.081-21.382,18.975-24.047c-1.922-0.471-3.931-0.725-6-0.725
			c-13.793,0-24.975,11.09-24.975,24.771c0,13.681,11.182,24.771,24.975,24.771c2.069,0,4.078-0.254,6-0.725
			C202.043,226.807,193.962,217.055,193.962,205.426z"/>
	</g>
	<g>
		<path class="st15" d="M202.45,205.426c0-5.441,3.56-10.063,8.488-11.723c-1.258-0.423-2.6-0.663-4-0.663
			c-6.886,0-12.488,5.556-12.488,12.386c0,6.83,5.602,12.386,12.488,12.386c1.4,0,2.742-0.24,4-0.664
			C206.01,215.489,202.45,210.867,202.45,205.426z"/>
	</g>
	<g>
		<circle class="st11" cx="205.827" cy="120.143" r="9"/>
	</g>
	<g>
		<ellipse class="st5" cx="49.705" cy="68.798" rx="42.94" ry="42.995"/>
	</g>
	<g>
		<path class="st6" d="M39.341,99.2c-16.769-16.791-16.769-44.014,0-60.805c5.822-5.83,12.901-9.63,20.363-11.412
			c-14.03-3.35-29.416,0.451-40.363,11.412C2.572,55.186,2.572,82.41,19.341,99.2c10.947,10.961,26.333,14.762,40.363,11.412
			C52.243,108.831,45.164,105.03,39.341,99.2z"/>
	</g>
	<g>
		<path class="st9" d="M49.705,106.793c-10.133,0-19.66-3.951-26.826-11.126c-14.796-14.816-14.796-38.923,0-53.738
			c7.166-7.175,16.693-11.126,26.826-11.126c10.133,0,19.66,3.951,26.826,11.126c14.796,14.815,14.796,38.922,0,53.738
			C69.365,102.842,59.838,106.793,49.705,106.793z"/>
	</g>
	<g>
		<path class="st11" d="M49.627,30.805c-10.104,0.02-19.601,3.968-26.749,11.124c-14.796,14.815-14.796,38.922,0,53.738
			c7.148,7.156,16.644,11.104,26.749,11.124c-3.696-1.958-7.174-4.475-10.286-7.591c-16.769-16.791-16.769-44.014,0-60.805
			C42.453,35.28,45.931,32.763,49.627,30.805z"/>
	</g>
	<g>
		<g>
			<path class="st5" d="M42.442,90.697c-1.429,0-2.847-0.609-3.836-1.79L22.971,70.234c-1.773-2.117-1.494-5.271,0.624-7.044
				c2.117-1.771,5.271-1.491,7.043,0.624l12.43,14.845l30.661-25.606c2.12-1.771,5.272-1.487,7.043,0.633
				c1.77,2.12,1.487,5.272-0.633,7.043L45.645,89.535C44.709,90.316,43.573,90.697,42.442,90.697z"/>
		</g>
	</g>
	<g>
		<path class="st6" d="M22.971,70.234l4.304,5.14c-0.678-4.413-0.668-8.908,0.028-13.318c-1.293-0.13-2.634,0.235-3.709,1.134
			C21.477,64.964,21.198,68.117,22.971,70.234z"/>
	</g>
</g>
</svg>
