<?xml version="1.0" encoding="utf-8"?>
<!-- Generator: Adobe Illustrator 22.1.0, SVG Export Plug-In . SVG Version: 6.00 Build 0)  -->
<svg version="1.1" id="Layer_1" xmlns="http://www.w3.org/2000/svg" xmlns:xlink="http://www.w3.org/1999/xlink" x="0px" y="0px"
	 viewBox="0 0 256 256" style="enable-background:new 0 0 256 256;" xml:space="preserve">
<style type="text/css">
	.st0{fill:#FFA730;}
	.st1{fill:#E58D23;}
	.st2{fill:#FFB74B;}
	.st3{fill:#BF6C0D;}
	.st4{fill:#A56021;}
	.st5{fill:#CCC033;}
	.st6{fill:#99AF17;}
	.st7{fill:#EACF32;}
	.st8{fill:#FCDA4F;}
	.st9{fill:#FFDF74;}
	.st10{fill:#FCE575;}
	.st11{fill:#FFD551;}
	.st12{fill:#FFC34C;}
	.st13{fill:#F9BB32;}
	.st14{fill:#FFF4C1;}
	.st15{fill:#DB9C2E;}
	.st16{fill:#8C4C17;}
	.st17{fill:#FF624B;}
	.st18{fill:#FF4B34;}
	.st19{fill:#FF9079;}
	.st20{fill:#FFD59A;}
	.st21{fill:#FFEACF;}
	.st22{fill:#FCF9DE;}
</style>
<g>
	<g>
		<path class="st5" d="M203.5,222.193h-151v-14.85c0-27.65,22.414-50.064,50.064-50.064h50.872c27.65,0,50.064,22.414,50.064,50.064
			V222.193z"/>
	</g>
	<g>
		<path class="st6" d="M130.564,157.279h-28c-27.65,0-50.064,22.414-50.064,50.064v14.85h28v-14.85
			C80.5,179.693,102.914,157.279,130.564,157.279z"/>
	</g>
	<g>
		<path class="st1" d="M130.777,199.164h-6.418c-1.164,0-2.108-0.944-2.108-2.108v-18.784h10.634v18.784
			C132.885,198.221,131.941,199.164,130.777,199.164z"/>
	</g>
	<g>
		<polygon class="st21" points="147.474,165.636 147.474,123.336 107.866,123.336 107.866,165.636 107.975,165.636 127.568,178.272 
			147.578,165.636 		"/>
	</g>
	<g>
		<polygon class="st20" points="127.975,165.636 127.866,165.636 127.866,123.336 107.866,123.336 107.866,165.636 107.975,165.636 
			127.568,178.272 137.673,171.891 		"/>
	</g>
	<g>
		<path class="st13" d="M187.224,248H68.776v-53.193c0-2.209,1.791-4,4-4h110.448c2.209,0,4,1.791,4,4V248z"/>
	</g>
	<g>
		<path class="st16" d="M84.679,109.663h17.363V49.172c0-5.654-4.584-10.238-10.238-10.238h-7.126
			c-5.654,0-10.238,4.584-10.238,10.238v50.254C74.441,105.08,79.024,109.663,84.679,109.663z"/>
	</g>
	<g>
		<path class="st16" d="M171.245,33.736h-6.936c-5.606,0-10.15,4.524-10.15,10.104v8.798c10.985,8.134,18.102,21.154,18.102,35.829
			v15.947c5.129-0.507,9.135-4.814,9.135-10.053V43.841C181.396,38.26,176.851,33.736,171.245,33.736z"/>
	</g>
	<g>
		<ellipse class="st21" cx="173.531" cy="92.302" rx="14.694" ry="14.434"/>
	</g>
	<g>
		<ellipse class="st20" cx="80.955" cy="97.525" rx="14.694" ry="14.434"/>
	</g>
	<g>
		<path class="st21" d="M128.529,148.912h-0.856c-24.854,0-45.003-20.148-45.003-45.003V81.941
			c0-24.854,20.148-45.003,45.003-45.003h0.856c24.854,0,45.003,20.148,45.003,45.003v21.968
			C173.531,128.764,153.383,148.912,128.529,148.912z"/>
	</g>
	<g>
		<path class="st20" d="M98.613,98.666V76.514c0-1.69,0.096-3.357,0.283-4.998c0.289-2.54,2.506-4.446,5.108-4.446h67.074
			c-6.127-17.53-23.053-30.131-42.978-30.131c-1.951,0-3.871,0.125-5.757,0.359c0.003-0.001,0.006-0.003,0.009-0.005
			c-0.145,0.018-0.288,0.044-0.433,0.064c-0.479,0.064-0.957,0.132-1.43,0.211c-0.23,0.038-0.458,0.081-0.686,0.123
			c-0.42,0.076-0.838,0.156-1.253,0.243c-0.241,0.051-0.481,0.104-0.72,0.158c-0.405,0.092-0.807,0.189-1.207,0.292
			c-0.235,0.06-0.469,0.12-0.702,0.183c-0.415,0.113-0.826,0.234-1.236,0.359c-0.209,0.063-0.419,0.124-0.627,0.19
			c-0.491,0.157-0.977,0.324-1.461,0.496c-0.12,0.043-0.241,0.081-0.36,0.125c-0.601,0.22-1.196,0.453-1.786,0.697
			c-0.153,0.064-0.304,0.133-0.457,0.199c-0.431,0.184-0.86,0.372-1.285,0.569c-0.212,0.099-0.421,0.202-0.632,0.304
			c-0.361,0.174-0.719,0.351-1.075,0.534c-0.225,0.116-0.448,0.235-0.671,0.355c-0.337,0.181-0.671,0.366-1.003,0.556
			c-0.223,0.127-0.445,0.254-0.664,0.385c-0.333,0.198-0.662,0.401-0.989,0.606c-0.207,0.13-0.415,0.258-0.62,0.391
			c-0.361,0.235-0.715,0.477-1.069,0.722c-0.162,0.112-0.328,0.221-0.489,0.335c-0.5,0.356-0.993,0.721-1.478,1.095
			c-0.151,0.117-0.296,0.239-0.445,0.357c-0.338,0.268-0.675,0.538-1.005,0.816c-0.197,0.166-0.389,0.337-0.583,0.506
			c-0.275,0.24-0.549,0.48-0.818,0.726c-0.204,0.186-0.404,0.375-0.604,0.565c-0.252,0.239-0.502,0.481-0.749,0.726
			c-0.199,0.198-0.397,0.397-0.593,0.598c-0.241,0.248-0.478,0.501-0.713,0.754c-0.189,0.204-0.379,0.407-0.564,0.614
			c-0.242,0.271-0.477,0.547-0.712,0.823c-0.168,0.197-0.339,0.391-0.503,0.591c-0.344,0.419-0.68,0.846-1.009,1.277
			c-0.171,0.224-0.336,0.452-0.502,0.68c-0.23,0.314-0.461,0.628-0.683,0.948c-0.163,0.235-0.318,0.474-0.477,0.712
			c-0.185,0.278-0.37,0.556-0.549,0.838c-0.16,0.253-0.316,0.509-0.471,0.765c-0.167,0.276-0.332,0.553-0.493,0.832
			c-0.152,0.263-0.301,0.527-0.447,0.794c-0.155,0.281-0.305,0.565-0.453,0.851c-0.14,0.269-0.281,0.537-0.415,0.809
			c-0.147,0.296-0.286,0.595-0.426,0.895c-0.125,0.266-0.252,0.531-0.372,0.8c-0.161,0.363-0.312,0.731-0.463,1.099
			c-0.165,0.401-0.323,0.804-0.477,1.21c-0.126,0.333-0.255,0.664-0.372,1.001h0.004c-1.589,4.546-2.457,9.421-2.457,14.496v22.18
			c0,24.552,19.957,44.91,44.95,45.164c8.035,0.082,15.595-1.886,22.173-5.404c-1.984,0.246-4.006,0.367-6.061,0.353
			C118.668,143.692,98.613,123.286,98.613,98.666z"/>
	</g>
	<g>
		<g>
			<ellipse class="st4" cx="102.385" cy="92.925" rx="5.657" ry="5.557"/>
		</g>
		<g>
			<ellipse class="st4" cx="153.816" cy="92.925" rx="5.657" ry="5.557"/>
		</g>
	</g>
	<g>
		<path class="st4" d="M166.144,62.873H89.856c-8.423,0-15.251-6.828-15.251-15.251v-9.888c0-8.423,6.828-15.251,15.251-15.251
			h76.289c8.423,0,15.251,6.828,15.251,15.251v9.888C181.396,56.045,174.567,62.873,166.144,62.873z"/>
	</g>
	<g>
		<path class="st1" d="M181.66,56.052H74.34V35.403C74.34,20.269,86.609,8,101.744,8h52.513c15.135,0,27.403,12.269,27.403,27.403
			V56.052z"/>
	</g>
	<g>
		<path class="st0" d="M173.66,38.403c-1.657,0-3-1.343-3-3c0-9.045-7.358-16.403-16.403-16.403c-1.657,0-3-1.343-3-3s1.343-3,3-3
			c12.353,0,22.403,10.05,22.403,22.403C176.66,37.06,175.316,38.403,173.66,38.403z"/>
	</g>
	<g>
		<path class="st0" d="M74.44,56.052h106.955v8.33c0,11.921-9.664,21.585-21.585,21.585H96.025
			c-11.921,0-21.585-9.664-21.585-21.585V56.052z"/>
	</g>
	<g>
		<path class="st11" d="M141.047,47.521h-26.094c-3.953,0-7.158-3.205-7.158-7.158v-0.308c0-3.953,3.205-7.158,7.158-7.158h26.094
			c3.953,0,7.158,3.205,7.158,7.158v0.308C148.205,44.316,145,47.521,141.047,47.521z"/>
	</g>
	<g>
		<path class="st9" d="M138.236,217.398v-26.59h-21.269v26.59c1.769,0,1.769,2.659,3.539,2.659c1.771,0,1.771-2.659,3.543-2.659
			c1.772,0,1.772,2.659,3.543,2.659c1.772,0,1.772-2.659,3.544-2.659c1.775,0,1.775,2.659,3.55,2.659
			C136.461,220.057,136.461,217.398,138.236,217.398z"/>
	</g>
	<g>
		<path class="st0" d="M74.44,56.052h106.955v8.33c0,11.921-9.664,21.585-21.585,21.585H96.025
			c-11.921,0-21.585-9.664-21.585-21.585V56.052z"/>
	</g>
	<g>
		<path class="st3" d="M129.697,8h-28C86.588,8,74.34,20.248,74.34,35.357v20.695h28V35.357C102.34,20.248,114.588,8,129.697,8z"/>
	</g>
	<g>
		<path class="st0" d="M74.441,56.052h107.32v8.293c0,11.941-9.68,21.622-21.622,21.622H96.062c-11.941,0-21.622-9.68-21.622-21.622
			V56.052z"/>
	</g>
	<g>
		<path class="st1" d="M102.44,64.382v-8.33h-28v8.33c0,11.921,9.664,21.585,21.585,21.585h28
			C112.104,85.967,102.44,76.303,102.44,64.382z"/>
	</g>
	<g>
		<circle class="st1" cx="119.1" cy="71.01" r="9"/>
	</g>
	<g>
		<path class="st3" d="M107.975,157.279H89.082c-1.597,0-2.612,1.696-1.848,3.088l15.155,27.641c0.53,0.967,1.741,1.353,2.748,0.876
			l22.431-10.612l-17.674-11.398c-1.198-0.772-1.919-2.085-1.919-3.493V157.279z"/>
	</g>
	<g>
		<path class="st3" d="M147.578,157.279h19.295c1.631,0,2.667,1.696,1.888,3.088l-15.472,27.63
			c-0.547,0.977-1.774,1.368-2.801,0.892l-22.92-10.617l18.057-11.402c1.218-0.769,1.953-2.093,1.953-3.515V157.279z"/>
	</g>
	<g>
		<path class="st4" d="M99.234,160.367c-0.763-1.392,0.252-3.088,1.848-3.088h-12c-1.597,0-2.612,1.696-1.848,3.088l15.155,27.641
			c0.53,0.967,1.741,1.353,2.748,0.876l7.728-3.656L99.234,160.367z"/>
	</g>
	<g>
		<path class="st15" d="M100.776,190.807h-28c-2.209,0-4,1.791-4,4V248h28v-53.193C96.776,192.598,98.567,190.807,100.776,190.807z"
			/>
	</g>
</g>
</svg>
