<?xml version="1.0" encoding="utf-8"?>
<!-- Generator: Adobe Illustrator 22.1.0, SVG Export Plug-In . SVG Version: 6.00 Build 0)  -->
<svg version="1.1" id="Layer_1" xmlns="http://www.w3.org/2000/svg" xmlns:xlink="http://www.w3.org/1999/xlink" x="0px" y="0px"
	 viewBox="0 0 256 256" style="enable-background:new 0 0 256 256;" xml:space="preserve">
<style type="text/css">
	.st0{fill:#FFA730;}
	.st1{fill:#E58D23;}
	.st2{fill:#FFB74B;}
	.st3{fill:#BF6C0D;}
	.st4{fill:#A56021;}
	.st5{fill:#CCC033;}
	.st6{fill:#99AF17;}
	.st7{fill:#EACF32;}
	.st8{fill:#FCDA4F;}
	.st9{fill:#FFDF74;}
	.st10{fill:#FCE575;}
	.st11{fill:#FFD551;}
	.st12{fill:#FFC34C;}
	.st13{fill:#F9BB32;}
	.st14{fill:#FFF4C1;}
	.st15{fill:#DB9C2E;}
	.st16{fill:#8C4C17;}
	.st17{fill:#FF624B;}
	.st18{fill:#FF4B34;}
	.st19{fill:#FF9079;}
	.st20{fill:#FFD59A;}
	.st21{fill:#FFEACF;}
	.st22{fill:#FCF9DE;}
</style>
<g>
	<g>
		<g>
			<path class="st13" d="M216.384,207.531H67.616c-5.863,0-10.616-4.753-10.616-10.616V56.146c0-5.863,4.753-10.616,10.616-10.616
				h148.768c5.863,0,10.616,4.753,10.616,10.616v140.769C227,202.778,222.247,207.531,216.384,207.531z"/>
		</g>
	</g>
	<g>
		<g>
			<g>
				<path class="st4" d="M212.091,178.303h-2.84v13.658c0,0.483-0.463,0.875-1.034,0.875h-9.18c-0.571,0-1.034-0.392-1.034-0.875
					v-13.658h-2.873c-0.337,0-0.514-0.338-0.287-0.549l8.583-7.991c0.047-0.044,0.115-0.069,0.185-0.069
					c0.071,0,0.138,0.025,0.185,0.069l8.583,7.991C212.605,177.965,212.428,178.303,212.091,178.303z"/>
			</g>
		</g>
	</g>
	<g>
		<g>
			<path class="st12" d="M221.087,136.882c-1.657,0-3-1.343-3-3V56.739c0-1.657,1.343-3,3-3s3,1.343,3,3v77.143
				C224.087,135.539,222.744,136.882,221.087,136.882z"/>
		</g>
	</g>
	<g>
		<g>
			<path class="st4" d="M162.865,181.37h-35.512c-2.209,0-4-1.791-4-4s1.791-4,4-4h35.512c2.209,0,4,1.791,4,4
				S165.074,181.37,162.865,181.37z"/>
		</g>
	</g>
	<g>
		<g>
			<path class="st4" d="M162.865,193.589h-35.512c-2.209,0-4-1.791-4-4s1.791-4,4-4h35.512c2.209,0,4,1.791,4,4
				S165.074,193.589,162.865,193.589z"/>
		</g>
	</g>
	<g>
		<g>
			<path class="st4" d="M95.888,193.269H65.874c-1.377,0-2.493-1.116-2.493-2.493v-14.908c0-1.377,1.116-2.493,2.493-2.493h30.013
				c1.377,0,2.493,1.116,2.493,2.493v14.908C98.381,192.153,97.265,193.269,95.888,193.269z"/>
		</g>
	</g>
	<g>
		<g>
			<circle class="st15" cx="91.3" cy="60.739" r="9"/>
		</g>
	</g>
	<g>
		<g>
			<path class="st15" d="M77.696,196.685V56.376c0-5.99,4.652-10.845,10.391-10.845H67.391C61.652,45.531,57,50.386,57,56.376
				v140.31c0,5.99,4.652,10.845,10.391,10.845h20.696C82.348,207.531,77.696,202.675,77.696,196.685z"/>
		</g>
	</g>
	<g>
		<g>
			<path class="st16" d="M65.822,173.374c-1.348,0-2.441,1.14-2.441,2.547v14.8c0,1.407,1.093,2.547,2.441,2.547h11.874v-19.895
				H65.822z"/>
		</g>
	</g>
	<g>
		<g>
			<path class="st9" d="M166.672,117.324V45.531h-45.196v71.793c3.76,0,3.76,7.179,7.52,7.179c3.764,0,3.764-7.179,7.528-7.179
				c3.765,0,3.765,7.179,7.529,7.179c3.766,0,3.766-7.179,7.531-7.179c3.772,0,3.772,7.179,7.543,7.179
				S162.9,117.324,166.672,117.324z"/>
		</g>
	</g>
	<g>
		<g>
			<path class="st14" d="M160.759,116.574c-1.657,0-3-1.343-3-3V51.702c0-1.657,1.343-3,3-3s3,1.343,3,3v61.872
				C163.759,115.231,162.416,116.574,160.759,116.574z"/>
		</g>
	</g>
	<g>
		<g>
			<path class="st5" d="M14.655,8.09L40.34,8.001c3.689-0.013,6.69,2.968,6.702,6.658l0.711,226.552
				c0.012,3.688-2.968,6.687-6.655,6.699l-25.685,0.089c-3.689,0.013-6.69-2.968-6.702-6.658L8,14.79
				C7.988,11.102,10.968,8.103,14.655,8.09z"/>
		</g>
	</g>
	<g>
		<g>
			<g>
				<path class="st9" d="M29.52,22.885c0.572-0.607,1.361-0.986,2.232-0.995l12.461-0.129c1.741-0.018,3.148,1.454,3.142,3.288
					c-0.005,1.833-1.421,3.335-3.163,3.353l-12.46,0.129c-1.741,0.018-3.148-1.454-3.142-3.288
					C28.592,24.326,28.948,23.492,29.52,22.885z"/>
			</g>
		</g>
	</g>
	<g>
		<g>
			<g>
				<path class="st9" d="M23.156,125.508c0.572-0.607,1.361-0.986,2.232-0.996l18.915-0.197c1.741-0.018,3.148,1.454,3.142,3.288
					c-0.006,1.834-1.421,3.335-3.162,3.353l-18.915,0.197c-1.741,0.018-3.148-1.454-3.142-3.288
					C22.229,126.949,22.584,126.115,23.156,125.508z"/>
			</g>
		</g>
	</g>
	<g>
		<g>
			<g>
				<path class="st9" d="M29.628,57.158c0.572-0.607,1.361-0.986,2.232-0.995l12.461-0.129c1.741-0.018,3.148,1.454,3.142,3.288
					c-0.005,1.833-1.421,3.335-3.163,3.353l-12.46,0.129c-1.741,0.018-3.148-1.454-3.142-3.288
					C28.7,58.599,29.056,57.764,29.628,57.158z"/>
			</g>
		</g>
	</g>
	<g>
		<g>
			<g>
				<path class="st9" d="M29.735,91.43c0.572-0.607,1.361-0.986,2.232-0.995l12.461-0.129c1.741-0.018,3.148,1.454,3.142,3.288
					c-0.005,1.833-1.421,3.335-3.163,3.353l-12.46,0.129c-1.741,0.018-3.148-1.454-3.142-3.288
					C28.807,92.871,29.163,92.037,29.735,91.43z"/>
			</g>
		</g>
	</g>
	<g>
		<g>
			<g>
				<path class="st9" d="M29.95,159.976c0.572-0.607,1.361-0.986,2.232-0.995l12.461-0.129c1.741-0.018,3.148,1.454,3.142,3.288
					c-0.005,1.833-1.421,3.335-3.163,3.353l-12.46,0.129c-1.741,0.018-3.148-1.454-3.142-3.288
					C29.023,161.417,29.378,160.583,29.95,159.976z"/>
			</g>
		</g>
	</g>
	<g>
		<g>
			<g>
				<path class="st9" d="M30.058,194.249c0.572-0.607,1.361-0.986,2.232-0.995l12.461-0.129c1.741-0.018,3.148,1.454,3.142,3.288
					c-0.005,1.833-1.421,3.335-3.163,3.353l-12.46,0.129c-1.741,0.018-3.148-1.454-3.142-3.288
					C29.13,195.69,29.486,194.855,30.058,194.249z"/>
			</g>
		</g>
	</g>
	<g>
		<g>
			<g>
				<path class="st9" d="M30.165,228.521c0.572-0.607,1.361-0.986,2.232-0.995l12.461-0.129c1.741-0.018,3.148,1.454,3.142,3.288
					c-0.005,1.833-1.421,3.335-3.163,3.353l-12.46,0.129c-1.741,0.018-3.148-1.454-3.142-3.288
					C29.238,229.962,29.593,229.128,30.165,228.521z"/>
			</g>
		</g>
	</g>
	<g>
		<g>
			<path class="st6" d="M20.711,241.342L20,14.79c-0.011-3.688,2.968-6.687,6.655-6.699l14.416-0.05
				C40.831,8.015,40.588,8,40.34,8.001L14.655,8.09C10.968,8.103,7.988,11.102,8,14.79l0.711,226.552
				c0.012,3.689,3.012,6.67,6.702,6.658l11.269-0.039C23.335,247.607,20.721,244.784,20.711,241.342z"/>
		</g>
	</g>
	<g>
		<g>
			<g>
				<path class="st4" d="M234,47.531c-1.104,0-2-0.896-2-2s0.896-2,2-2l14,0c1.104,0,2,0.896,2,2s-0.896,2-2,2L234,47.531z"/>
			</g>
		</g>
		<g>
			<g>
				<path class="st4" d="M234,209.531c-1.104,0-2-0.896-2-2s0.896-2,2-2l14,0c1.104,0,2,0.896,2,2s-0.896,2-2,2L234,209.531z"/>
			</g>
		</g>
		<g>
			<g>
				<path class="st4" d="M248.001,56c-0.576,0-1.147-0.247-1.543-0.726L241,48.67l-5.458,6.604c-0.704,0.853-1.966,0.97-2.816,0.268
					c-0.852-0.704-0.971-1.964-0.268-2.815l7-8.469c0.76-0.92,2.324-0.92,3.084,0l7,8.469c0.703,0.851,0.584,2.112-0.268,2.815
					C248.901,55.85,248.45,56,248.001,56z"/>
			</g>
		</g>
		<g>
			<g>
				<path class="st4" d="M241,209.531c-0.597,0-1.162-0.266-1.542-0.726l-7-8.47c-0.703-0.851-0.584-2.112,0.268-2.815
					c0.851-0.704,2.112-0.584,2.816,0.268l5.458,6.604l5.458-6.604c0.704-0.852,1.966-0.97,2.816-0.268
					c0.852,0.704,0.971,1.964,0.268,2.815l-7,8.47C242.162,209.265,241.597,209.531,241,209.531z"/>
			</g>
		</g>
		<g>
			<g>
				<path class="st4" d="M241,209.531c-1.104,0-2-0.896-2-2v-162c0-1.104,0.896-2,2-2s2,0.896,2,2v162
					C243,208.635,242.104,209.531,241,209.531z"/>
			</g>
		</g>
	</g>
	<g>
		<g>
			<g>
				<path class="st4" d="M227,230c-1.104,0-2-0.896-2-2v-14c0-1.104,0.896-2,2-2s2,0.896,2,2v14C229,229.104,228.104,230,227,230z"
					/>
			</g>
		</g>
		<g>
			<g>
				<path class="st4" d="M57,230c-1.104,0-2-0.896-2-2v-14c0-1.104,0.896-2,2-2s2,0.896,2,2v14C59,229.104,58.104,230,57,230z"/>
			</g>
		</g>
		<g>
			<g>
				<path class="st4" d="M218.113,230c-0.592,0-1.178-0.261-1.572-0.763c-0.684-0.868-0.534-2.125,0.334-2.809l6.893-5.429
					l-6.893-5.429c-0.868-0.684-1.018-1.941-0.334-2.809s1.942-1.016,2.809-0.334l8.888,7c0.481,0.379,0.763,0.958,0.763,1.571
					s-0.281,1.192-0.763,1.571l-8.888,7C218.983,229.86,218.547,230,218.113,230z"/>
			</g>
		</g>
		<g>
			<g>
				<path class="st4" d="M65.887,230c-0.434,0-0.87-0.14-1.236-0.429l-8.888-7C55.281,222.192,55,221.613,55,221
					s0.281-1.192,0.763-1.571l8.888-7c0.866-0.682,2.125-0.535,2.809,0.334c0.684,0.868,0.534,2.125-0.334,2.809L60.232,221
					l6.893,5.429c0.868,0.684,1.018,1.941,0.334,2.809C67.064,229.738,66.479,230,65.887,230z"/>
			</g>
		</g>
		<g>
			<g>
				<path class="st4" d="M227,223H57c-1.104,0-2-0.896-2-2s0.896-2,2-2h170c1.104,0,2,0.896,2,2S228.104,223,227,223z"/>
			</g>
		</g>
	</g>
</g>
</svg>
