<?xml version="1.0" encoding="utf-8"?>
<!-- Generator: Adobe Illustrator 22.1.0, SVG Export Plug-In . SVG Version: 6.00 Build 0)  -->
<svg version="1.1" id="Layer_1" xmlns="http://www.w3.org/2000/svg" xmlns:xlink="http://www.w3.org/1999/xlink" x="0px" y="0px"
	 viewBox="0 0 256 256" style="enable-background:new 0 0 256 256;" xml:space="preserve">
<style type="text/css">
	.st0{fill:#DB9C2E;}
	.st1{fill:#BF6C0D;}
	.st2{fill:#FFD551;}
	.st3{fill:#F9BB32;}
	.st4{fill:#FFF4C1;}
	.st5{fill:#FCF9DE;}
	.st6{fill:#FFDF74;}
	.st7{fill:#FCE575;}
	.st8{fill:#FFC34C;}
	.st9{fill:#E58D23;}
	.st10{fill:#A56021;}
	.st11{fill:#8C4C17;}
	.st12{fill:#FFB74B;}
	.st13{fill:#FF9079;}
	.st14{fill:#FF624B;}
	.st15{fill:#FF4B34;}
	.st16{fill:#CCC033;}
	.st17{fill:#99AF17;}
	.st18{fill:#EACF32;}
	.st19{fill:#FFA730;}
	.st20{fill:#FFEACF;}
	.st21{fill:#FFD59A;}
</style>
<g>
	<g>
		<g>
			<path class="st9" d="M164.086,201.926v-9.342h78.642c2.538,0,4.595,2.057,4.595,4.595v0.152c0,2.538-2.057,4.595-4.595,4.595
				H164.086z"/>
		</g>
	</g>
	<g>
		<g>
			<path class="st1" d="M192.086,196.584h55.177c-0.295-2.254-2.201-4-4.535-4h-78.642v9.342h28V196.584z"/>
		</g>
	</g>
	<g>
		<g>
			<rect x="45.242" y="42.521" class="st3" width="9.249" height="103.122"/>
		</g>
	</g>
	<g>
		<g>
			<rect x="45.242" y="42.521" class="st0" width="6" height="103.122"/>
		</g>
	</g>
	<g>
		<g>
			<polygon class="st18" points="136.074,146.39 133.371,147.967 114.952,115.743 117.655,114.166 			"/>
		</g>
	</g>
	<g>
		<g>
			<path class="st14" d="M134.953,201.692H21.881c-8.041,0-14.559-6.518-14.559-14.559v-41.491h127.63V201.692z"/>
		</g>
	</g>
	<g>
		<g>
			<path class="st14" d="M45.242,145.642H7.323V125.21c0-6.845,5.549-12.394,12.394-12.394h25.526V145.642z"/>
		</g>
	</g>
	<g>
		<g>
			<path class="st19" d="M66.513,145.642v-18.683h27.823c3.533,0,6.397,2.864,6.397,6.397v5.89c0,3.533-2.864,6.397-6.397,6.397
				H66.513z"/>
		</g>
	</g>
	<g>
		<g>
			<path class="st14" d="M144.419,99.588L112.581,45.05c-0.915-1.568-2.58-2.529-4.38-2.529h-62.96H34.143
				c-2.809,0-5.086,2.305-5.086,5.147s2.277,5.147,5.086,5.147h11.099h10.173h46.98c1.799,0,3.464,0.962,4.38,2.529l27.471,47.058
				c0.463,0.793,0.707,1.696,0.707,2.615v30.225v5.338v4.891v56.22h6.173c2.209,0,4-1.794,4-4.008v-52.148v-4.957v-38.378
				C145.126,101.283,144.882,100.381,144.419,99.588z"/>
		</g>
	</g>
	<g>
		<g>
			<rect x="145.126" y="179.31" class="st0" width="18.96" height="13.274"/>
		</g>
	</g>
	<g>
		<g>
			<path class="st16" d="M238.293,192.829h-61.37c-2.383,0-4.315-1.932-4.315-4.315v-56.37c0-2.383,1.932-4.315,4.315-4.315h61.37
				c2.383,0,4.315,1.932,4.315,4.315v56.37C242.608,190.897,240.677,192.829,238.293,192.829z"/>
		</g>
	</g>
	<g>
		<g>
			<path class="st18" d="M237.914,158.534c-1.104,0-2-0.896-2-2V132.46c0-1.104,0.896-2,2-2s2,0.896,2,2v24.074
				C239.914,157.639,239.019,158.534,237.914,158.534z"/>
		</g>
	</g>
	<g>
		<g>
			<path class="st6" d="M216.564,156.635v-28.806h-18.61v28.806c1.548,0,1.548,2.881,3.096,2.881c1.55,0,1.55-2.881,3.1-2.881
				c1.55,0,1.55,2.881,3.1,2.881c1.551,0,1.551-2.881,3.101-2.881c1.553,0,1.553,2.881,3.106,2.881S215.011,156.635,216.564,156.635
				z"/>
		</g>
	</g>
	<g>
		<g>
			<path class="st4" d="M213.27,156.501c-1.104,0-2-0.896-2-2v-23.462c0-1.104,0.896-2,2-2s2,0.896,2,2v23.462
				C215.27,155.606,214.375,156.501,213.27,156.501z"/>
		</g>
	</g>
	<g>
		<g>
			<path class="st10" d="M237.86,182.164h-14.623c-0.829,0-1.5-0.672-1.5-1.5s0.671-1.5,1.5-1.5h14.623c0.829,0,1.5,0.672,1.5,1.5
				S238.689,182.164,237.86,182.164z"/>
		</g>
	</g>
	<g>
		<g>
			<path class="st10" d="M237.86,187.067h-14.623c-0.829,0-1.5-0.672-1.5-1.5s0.671-1.5,1.5-1.5h14.623c0.829,0,1.5,0.672,1.5,1.5
				S238.689,187.067,237.86,187.067z"/>
		</g>
	</g>
	<g>
		<g>
			<path class="st3" d="M238.293,127.829h-61.37c-2.383,0-4.315-1.932-4.315-4.315v-56.37c0-2.383,1.932-4.315,4.315-4.315h61.37
				c2.383,0,4.315,1.932,4.315,4.315v56.37C242.608,125.897,240.677,127.829,238.293,127.829z"/>
		</g>
	</g>
	<g>
		<g>
			<path class="st8" d="M237.914,93.534c-1.104,0-2-0.896-2-2V67.46c0-1.104,0.896-2,2-2s2,0.896,2,2v24.074
				C239.914,92.639,239.019,93.534,237.914,93.534z"/>
		</g>
	</g>
	<g>
		<g>
			<path class="st6" d="M216.564,91.635V62.829h-18.61v28.806c1.548,0,1.548,2.881,3.096,2.881c1.55,0,1.55-2.881,3.1-2.881
				c1.55,0,1.55,2.881,3.1,2.881c1.551,0,1.551-2.881,3.101-2.881c1.553,0,1.553,2.881,3.106,2.881S215.011,91.635,216.564,91.635z"
				/>
		</g>
	</g>
	<g>
		<g>
			<path class="st4" d="M213.27,91.501c-1.104,0-2-0.896-2-2V66.039c0-1.104,0.896-2,2-2s2,0.896,2,2v23.462
				C215.27,90.606,214.375,91.501,213.27,91.501z"/>
		</g>
	</g>
	<g>
		<g>
			<path class="st10" d="M237.86,117.164h-14.623c-0.829,0-1.5-0.672-1.5-1.5s0.671-1.5,1.5-1.5h14.623c0.829,0,1.5,0.672,1.5,1.5
				S238.689,117.164,237.86,117.164z"/>
		</g>
	</g>
	<g>
		<g>
			<path class="st10" d="M237.86,122.067h-14.623c-0.829,0-1.5-0.672-1.5-1.5s0.671-1.5,1.5-1.5h14.623c0.829,0,1.5,0.672,1.5,1.5
				S238.689,122.067,237.86,122.067z"/>
		</g>
	</g>
	<g>
		<g>
			<path class="st13" d="M245.746,62.899h-54.137c-1.619,0-2.931-1.312-2.931-2.931V30.831c0-1.619,1.312-2.931,2.931-2.931h54.137
				c1.619,0,2.931,1.312,2.931,2.931v29.137C248.677,61.587,247.365,62.899,245.746,62.899z"/>
		</g>
	</g>
	<g>
		<g>
			<path class="st8" d="M244.654,47.356c-1.104,0-2-0.896-2-2V32.393c0-1.104,0.896-2,2-2s2,0.896,2,2v12.963
				C246.654,46.461,245.758,47.356,244.654,47.356z"/>
		</g>
	</g>
	<g>
		<g>
			<path class="st6" d="M226.354,43.41V27.899h-15.951V43.41c1.327,0,1.327,1.551,2.654,1.551c1.329,0,1.329-1.551,2.657-1.551
				c1.329,0,1.329,1.551,2.657,1.551c1.329,0,1.329-1.551,2.658-1.551c1.331,0,1.331,1.551,2.662,1.551S225.023,43.41,226.354,43.41
				z"/>
		</g>
	</g>
	<g>
		<g>
			<path class="st4" d="M223.53,42.432c-1.104,0-2-0.896-2-2v-9.5c0-1.104,0.896-2,2-2s2,0.896,2,2v9.5
				C225.53,41.536,224.635,42.432,223.53,42.432z"/>
		</g>
	</g>
	<g>
		<g>
			<path class="st10" d="M244.608,57.037h-12.534c-0.552,0-1-0.448-1-1s0.448-1,1-1h12.534c0.552,0,1,0.448,1,1
				S245.16,57.037,244.608,57.037z"/>
		</g>
	</g>
	<g>
		<g>
			<path class="st10" d="M244.608,59.677h-12.534c-0.552,0-1-0.448-1-1s0.448-1,1-1h12.534c0.552,0,1,0.448,1,1
				S245.16,59.677,244.608,59.677z"/>
		</g>
	</g>
	<g>
		<g>
			<path class="st9" d="M71.536,145.629H54.49v-49.05c0-3.866,3.134-7,7-7h10.046c3.866,0,7,3.134,7,7v42.05
				C78.536,142.495,75.402,145.629,71.536,145.629z"/>
		</g>
	</g>
	<g>
		<g>
			<path class="st16" d="M128.574,113.436l-19.708,11.493c-1.193,0.696-2.719,0.283-3.408-0.922v0
				c-0.689-1.205-0.28-2.746,0.913-3.442l19.708-11.493c1.193-0.696,2.719-0.283,3.408,0.922v0
				C130.176,111.199,129.767,112.74,128.574,113.436z"/>
		</g>
	</g>
	<g>
		<g>
			<path class="st15" d="M45.242,113.064v-0.248H19.716c-6.845,0-12.394,5.549-12.394,12.394v20.433h28V125.21
				C35.323,119.212,39.583,114.211,45.242,113.064z"/>
		</g>
	</g>
	<g>
		<g>
			<path class="st15" d="M35.323,187.133v-41.491h-28v41.491c0,8.041,6.518,14.559,14.559,14.559h28
				C41.841,201.692,35.323,195.174,35.323,187.133z"/>
		</g>
	</g>
	<g>
		<g>
			<circle class="st1" cx="41.228" cy="206.058" r="22"/>
		</g>
	</g>
	<g>
		<g>
			<circle class="st1" cx="105.968" cy="206.101" r="22"/>
		</g>
	</g>
	<g>
		<g>
			<g>
				<path class="st15" d="M57.057,47.668c0-2.843,2.277-5.147,5.086-5.147H45.242H34.143c-2.809,0-5.086,2.305-5.086,5.147
					c0,2.843,2.277,5.147,5.086,5.147h11.099h10.173h6.728C59.334,52.815,57.057,50.511,57.057,47.668z"/>
			</g>
		</g>
	</g>
	<g>
		<g>
			<path class="st1" d="M72.513,89.655c-0.32-0.045-0.644-0.076-0.977-0.076H61.49c-3.866,0-7,3.134-7,7v49.05h12v-49.05
				C66.49,93.045,69.111,90.131,72.513,89.655z"/>
		</g>
	</g>
	<g>
		<g>
			<path class="st10" d="M31.228,206.058c0-10.069,6.767-18.552,16-21.165c-1.908-0.54-3.919-0.835-6-0.835c-12.15,0-22,9.85-22,22
				c0,12.15,9.85,22,22,22c2.081,0,4.092-0.295,6-0.835C37.995,224.61,31.228,216.127,31.228,206.058z"/>
		</g>
	</g>
	<g>
		<g>
			<path class="st10" d="M95.968,206.101c0-10.069,6.767-18.552,16-21.165c-1.908-0.54-3.919-0.835-6-0.835c-12.15,0-22,9.85-22,22
				s9.85,22,22,22c2.081,0,4.092-0.295,6-0.835C102.735,224.653,95.968,216.17,95.968,206.101z"/>
		</g>
	</g>
	<g>
		<g>
			<circle class="st3" cx="41.228" cy="206.058" r="11"/>
		</g>
	</g>
	<g>
		<g>
			<circle class="st3" cx="105.968" cy="206.101" r="11"/>
		</g>
	</g>
	<g>
		<g>
			<path class="st17" d="M113.459,122.007c-0.689-1.205-0.28-2.746,0.913-3.442l14.992-8.743c-0.733-1.063-2.154-1.409-3.285-0.75
				l-19.708,11.493c-1.193,0.696-1.602,2.237-0.913,3.442c0.689,1.205,2.214,1.618,3.408,0.922l4.715-2.75
				C113.542,122.121,113.495,122.069,113.459,122.007z"/>
		</g>
	</g>
	<g>
		<g>
			<rect x="145.126" y="179.31" class="st1" width="8" height="13.274"/>
		</g>
	</g>
	<g>
		<g>
			<path class="st1" d="M172.872,201.926h-9.249v-98.195c0-2.52,2.043-4.563,4.563-4.563h0.123c2.52,0,4.563,2.043,4.563,4.563
				V201.926z"/>
		</g>
	</g>
	<g>
		<g>
			<path class="st10" d="M171.247,100.267c-0.796-0.676-1.813-1.099-2.938-1.099h-0.123c-2.52,0-4.563,2.043-4.563,4.563v98.195h6
				v-98.195C169.623,102.336,170.262,101.104,171.247,100.267z"/>
		</g>
	</g>
	<g>
		<g>
			<circle class="st15" cx="48.242" cy="173.009" r="9"/>
		</g>
	</g>
	<g>
		<g>
			<path class="st13" d="M133.126,195.584c-1.657,0-3-1.343-3-3v-37.809c0-1.657,1.343-3,3-3s3,1.343,3,3v37.809
				C136.126,194.241,134.783,195.584,133.126,195.584z"/>
		</g>
	</g>
	<g>
		<g>
			<path class="st0" d="M38.228,206.058c0-4.653,2.909-8.631,7-10.236c-1.241-0.487-2.588-0.764-4-0.764c-6.065,0-11,4.934-11,11
				c0,6.066,4.935,11,11,11c1.412,0,2.759-0.277,4-0.764C41.137,214.689,38.228,210.711,38.228,206.058z"/>
		</g>
	</g>
	<g>
		<g>
			<path class="st0" d="M102.968,206.101c0-4.654,2.909-8.632,7-10.236c-1.242-0.487-2.588-0.764-4-0.764c-6.065,0-11,4.934-11,11
				s4.935,11,11,11c1.412,0,2.758-0.277,4-0.764C105.877,214.732,102.968,210.754,102.968,206.101z"/>
		</g>
	</g>
	<g>
		<g>
			<path class="st17" d="M184.608,188.514v-56.37c0-2.383,1.932-4.315,4.315-4.315h-12c-2.383,0-4.315,1.932-4.315,4.315v56.37
				c0,2.383,1.932,4.315,4.315,4.315h12C186.54,192.829,184.608,190.897,184.608,188.514z"/>
		</g>
	</g>
	<g>
		<g>
			<path class="st0" d="M184.608,123.514v-56.37c0-2.383,1.932-4.315,4.315-4.315h-12c-2.383,0-4.315,1.932-4.315,4.315v56.37
				c0,2.383,1.932,4.315,4.315,4.315h12C186.54,127.829,184.608,125.897,184.608,123.514z"/>
		</g>
	</g>
	<g>
		<g>
			<path class="st14" d="M200.677,59.968V30.831c0-1.619,1.312-2.931,2.931-2.931h-12c-1.619,0-2.931,1.313-2.931,2.931v29.137
				c0,1.619,1.312,2.931,2.931,2.931h12C201.99,62.899,200.677,61.587,200.677,59.968z"/>
		</g>
	</g>
	<g>
		<g>
			<path class="st18" d="M188.634,187.107h-12.385c-0.56,0-1.013-0.454-1.013-1.013v-5.955c0-0.56,0.454-1.013,1.013-1.013h12.385
				c0.56,0,1.013,0.454,1.013,1.013v5.955C189.648,186.653,189.194,187.107,188.634,187.107z"/>
		</g>
	</g>
	<g>
		<g>
			<path class="st10" d="M188.634,122.107h-12.385c-0.56,0-1.013-0.454-1.013-1.013v-5.955c0-0.56,0.454-1.013,1.013-1.013h12.385
				c0.56,0,1.013,0.454,1.013,1.013v5.955C189.648,121.653,189.194,122.107,188.634,122.107z"/>
		</g>
	</g>
	<g>
		<g>
			<path class="st14" d="M202.594,59.818h-10.976c-0.38,0-0.689-0.308-0.689-0.689v-2.921c0-0.38,0.308-0.689,0.689-0.689h10.976
				c0.38,0,0.689,0.308,0.689,0.689v2.921C203.282,59.51,202.974,59.818,202.594,59.818z"/>
		</g>
	</g>
	<g>
		<g>
			<path class="st16" d="M184.608,179.124h-8.359c-0.56,0-1.013,0.454-1.013,1.014v5.955c0,0.56,0.454,1.013,1.013,1.013h8.359
				V179.124z"/>
		</g>
	</g>
	<g>
		<g>
			<path class="st11" d="M184.608,114.124h-8.359c-0.56,0-1.013,0.454-1.013,1.014v5.956c0,0.56,0.454,1.013,1.013,1.013h8.359
				V114.124z"/>
		</g>
	</g>
	<g>
		<g>
			<path class="st15" d="M200.677,59.818V55.52h-9.059c-0.38,0-0.688,0.308-0.688,0.688v2.921c0,0.38,0.308,0.689,0.688,0.689
				H200.677z"/>
		</g>
	</g>
</g>
</svg>
