<?xml version="1.0" encoding="utf-8"?>
<!-- Generator: Adobe Illustrator 22.1.0, SVG Export Plug-In . SVG Version: 6.00 Build 0)  -->
<svg version="1.1" id="Layer_1" xmlns="http://www.w3.org/2000/svg" xmlns:xlink="http://www.w3.org/1999/xlink" x="0px" y="0px"
	 viewBox="0 0 256 256" style="enable-background:new 0 0 256 256;" xml:space="preserve">
<style type="text/css">
	.st0{fill:#FFA730;}
	.st1{fill:#E58D23;}
	.st2{fill:#FFB74B;}
	.st3{fill:#BF6C0D;}
	.st4{fill:#A56021;}
	.st5{fill:#CCC033;}
	.st6{fill:#99AF17;}
	.st7{fill:#EACF32;}
	.st8{fill:#FCDA4F;}
	.st9{fill:#FFDF74;}
	.st10{fill:#FCE575;}
	.st11{fill:#FFD551;}
	.st12{fill:#FFC34C;}
	.st13{fill:#F9BB32;}
	.st14{fill:#FFF4C1;}
	.st15{fill:#DB9C2E;}
	.st16{fill:#8C4C17;}
	.st17{fill:#FF624B;}
	.st18{fill:#FF4B34;}
	.st19{fill:#FF9079;}
	.st20{fill:#FFD59A;}
	.st21{fill:#FFEACF;}
	.st22{fill:#FCF9DE;}
</style>
<g>
	<g>
		<g>
			<path class="st13" d="M222.787,214.291H132.77c-3.309,0-5.991-2.682-5.991-5.991v-74.018c0-3.309,2.682-5.991,5.991-5.991h90.017
				c3.309,0,5.991,2.682,5.991,5.991v74.018C228.779,211.608,226.096,214.291,222.787,214.291z"/>
		</g>
	</g>
	<g>
		<g>
			<g>
				<path class="st4" d="M219.833,198.775h-1.704v7.251c0,0.257-0.278,0.465-0.621,0.465h-5.508c-0.343,0-0.621-0.208-0.621-0.465
					v-7.251h-1.724c-0.202,0-0.308-0.18-0.172-0.291l5.15-4.242c0.028-0.023,0.069-0.037,0.111-0.037
					c0.042,0,0.083,0.013,0.111,0.037l5.15,4.242C220.142,198.595,220.035,198.775,219.833,198.775z"/>
			</g>
		</g>
	</g>
	<g>
		<g>
			<path class="st12" d="M223.231,178.193c-1.657,0-3-1.343-3-3v-40.952c0-1.657,1.343-3,3-3s3,1.343,3,3v40.952
				C226.231,176.85,224.888,178.193,223.231,178.193z"/>
		</g>
	</g>
	<g>
		<g>
			<path class="st4" d="M190.298,200.279h-21.307c-1.104,0-2-0.896-2-2s0.896-2,2-2h21.307c1.104,0,2,0.896,2,2
				S191.402,200.279,190.298,200.279z"/>
		</g>
	</g>
	<g>
		<g>
			<path class="st4" d="M190.298,206.766h-21.307c-1.104,0-2-0.896-2-2s0.896-2,2-2h21.307c1.104,0,2,0.896,2,2
				S191.402,206.766,190.298,206.766z"/>
		</g>
	</g>
	<g>
		<g>
			<path class="st4" d="M150.2,206.72h-18.186c-0.777,0-1.407-0.63-1.407-1.407v-7.747c0-0.777,0.63-1.407,1.407-1.407H150.2
				c0.777,0,1.407,0.63,1.407,1.407v7.747C151.607,206.09,150.977,206.72,150.2,206.72z"/>
		</g>
	</g>
	<g>
		<g>
			<circle class="st15" cx="151.359" cy="140.241" r="9"/>
		</g>
	</g>
	<g>
		<g>
			<path class="st15" d="M139.196,208.533v-74.485c0-3.18,2.791-5.757,6.235-5.757h-12.417c-3.443,0-6.235,2.578-6.235,5.757v74.485
				c0,3.18,2.791,5.757,6.235,5.757h12.417C141.987,214.291,139.196,211.713,139.196,208.533z"/>
		</g>
	</g>
	<g>
		<g>
			<path class="st16" d="M132.072,196.158c-0.809,0-1.464,0.605-1.464,1.352v7.857c0,0.747,0.656,1.352,1.464,1.352h7.124v-10.561
				H132.072z"/>
		</g>
	</g>
	<g>
		<g>
			<path class="st9" d="M192.582,166.403v-38.113h-27.117v38.113c2.256,0,2.256,3.811,4.512,3.811c2.258,0,2.258-3.811,4.517-3.811
				c2.259,0,2.259,3.811,4.518,3.811c2.259,0,2.259-3.811,4.519-3.811c2.263,0,2.263,3.811,4.526,3.811
				C190.319,170.214,190.319,166.403,192.582,166.403z"/>
		</g>
	</g>
	<g>
		<g>
			<path class="st14" d="M189.034,166.413c-1.104,0-2-0.896-2-2v-32.846c0-1.104,0.896-2,2-2s2,0.896,2,2v32.846
				C191.034,165.517,190.138,166.413,189.034,166.413z"/>
		</g>
	</g>
	<g>
		<g>
			<rect x="66.089" y="76.959" class="st13" width="16" height="171.333"/>
		</g>
	</g>
	<g>
		<g>
			<rect x="66.089" y="76.959" class="st15" width="8" height="171.333"/>
		</g>
	</g>
	<g>
		<g>
			<circle class="st3" cx="74.089" cy="57.708" r="50"/>
		</g>
	</g>
	<g>
		<g>
			<path class="st4" d="M50.089,57.708c0-23.116,15.691-42.559,37-48.283c-4.146-1.114-8.502-1.717-13-1.717
				c-27.614,0-50,22.386-50,50c0,27.614,22.386,50,50,50c4.498,0,8.854-0.604,13-1.717C65.78,100.267,50.089,80.824,50.089,57.708z"
				/>
		</g>
	</g>
	<g>
		<g>
			<circle class="st12" cx="74.089" cy="57.708" r="40"/>
		</g>
	</g>
	<g>
		<g>
			<path class="st2" d="M69.807,17.94c-20.05,2.144-35.718,19.158-35.718,39.768c0,20.61,15.668,37.624,35.718,39.768
				c-11.98-9.132-19.718-23.541-19.718-39.768C50.089,41.481,57.828,27.072,69.807,17.94z"/>
		</g>
	</g>
	<g>
		<g>
			<path class="st3" d="M98.089,215.241h-48v-16c0-2.209,1.791-4,4-4h40c2.209,0,4,1.791,4,4V215.241z"/>
		</g>
	</g>
	<g>
		<g>
			<g>
				<path class="st9" d="M74.089,33.542L74.089,33.542c-1.105,0-2-0.895-2-2v-8c0-1.105,0.895-2,2-2l0,0c1.105,0,2,0.895,2,2v8
					C76.089,32.647,75.194,33.542,74.089,33.542z"/>
			</g>
		</g>
		<g>
			<g>
				<path class="st9" d="M74.089,93.708L74.089,93.708c-1.105,0-2-0.895-2-2v-8c0-1.105,0.895-2,2-2l0,0c1.105,0,2,0.895,2,2v8
					C76.089,92.812,75.194,93.708,74.089,93.708z"/>
			</g>
		</g>
	</g>
	<g>
		<g>
			<g>
				<path class="st9" d="M98.172,57.625L98.172,57.625c0-1.105,0.895-2,2-2h8c1.105,0,2,0.895,2,2v0c0,1.105-0.895,2-2,2h-8
					C99.068,59.625,98.172,58.73,98.172,57.625z"/>
			</g>
		</g>
		<g>
			<g>
				<path class="st9" d="M38.007,57.625L38.007,57.625c0-1.105,0.895-2,2-2h8c1.105,0,2,0.895,2,2v0c0,1.105-0.895,2-2,2h-8
					C38.902,59.625,38.007,58.73,38.007,57.625z"/>
			</g>
		</g>
	</g>
	<g>
		<g>
			<g>
				<path class="st9" d="M91.118,74.654L91.118,74.654c0.781-0.781,2.047-0.781,2.828,0l5.657,5.657
					c0.781,0.781,0.781,2.047,0,2.828v0c-0.781,0.781-2.047,0.781-2.828,0l-5.657-5.657C90.337,76.701,90.337,75.435,91.118,74.654z
					"/>
			</g>
		</g>
		<g>
			<g>
				<path class="st9" d="M48.575,32.111L48.575,32.111c0.781-0.781,2.047-0.781,2.828,0l5.657,5.657
					c0.781,0.781,0.781,2.047,0,2.828l0,0c-0.781,0.781-2.047,0.781-2.828,0l-5.657-5.657
					C47.794,34.158,47.794,32.892,48.575,32.111z"/>
			</g>
		</g>
	</g>
	<g>
		<g>
			<g>
				<path class="st9" d="M57.06,74.654L57.06,74.654c0.781,0.781,0.781,2.047,0,2.828l-5.657,5.657
					c-0.781,0.781-2.047,0.781-2.828,0l0,0c-0.781-0.781-0.781-2.047,0-2.828l5.657-5.657C55.013,73.873,56.279,73.873,57.06,74.654
					z"/>
			</g>
		</g>
		<g>
			<g>
				<path class="st9" d="M99.604,32.111L99.604,32.111c0.781,0.781,0.781,2.047,0,2.828l-5.657,5.657
					c-0.781,0.781-2.047,0.781-2.828,0l0,0c-0.781-0.781-0.781-2.047,0-2.828l5.657-5.657C97.556,31.33,98.823,31.33,99.604,32.111z
					"/>
			</g>
		</g>
	</g>
	<g>
		<g>
			
				<ellipse transform="matrix(0.7071 -0.7071 0.7071 0.7071 -18.7502 69.3943)" class="st10" cx="74.391" cy="57.331" rx="8.306" ry="8.306"/>
		</g>
	</g>
	<g>
		<g>
			<g>
				<path class="st17" d="M77.359,54.363l-5.935,5.935l16.401,11.928c1.039,0.756,2.218-0.423,1.462-1.462L77.359,54.363z"/>
			</g>
		</g>
	</g>
	<g>
		<g>
			
				<ellipse transform="matrix(0.7071 -0.7071 0.7071 0.7071 -18.7502 69.3943)" class="st1" cx="74.391" cy="57.331" rx="5.246" ry="5.246"/>
		</g>
	</g>
	<g>
		<g>
			<path class="st4" d="M74.089,195.241h-20c-2.209,0-4,1.791-4,4v16h20v-16C70.089,197.032,71.88,195.241,74.089,195.241z"/>
		</g>
	</g>
	<g>
		<g>
			<path class="st3" d="M221.105,248.292H34.895c-3.314,0-6-2.686-6-6v-14.39h198.21v14.39
				C227.105,245.606,224.419,248.292,221.105,248.292z"/>
		</g>
	</g>
	<g>
		<g>
			<path class="st1" d="M230,227.902H26c-3.866,0-7-3.134-7-7v0c0-3.866,3.134-7,7-7h204c3.866,0,7,3.134,7,7v0
				C237,224.768,233.866,227.902,230,227.902z"/>
		</g>
	</g>
	<g>
		<g>
			<path class="st3" d="M47,220.902c0-3.866,3.134-7,7-7H26c-3.866,0-7,3.134-7,7c0,3.866,3.134,7,7,7h28
				C50.134,227.902,47,224.768,47,220.902z"/>
		</g>
	</g>
	<g>
		<g>
			<path class="st4" d="M56.895,242.292v-14.39h-28v14.39c0,3.314,2.686,6,6,6h28C59.581,248.292,56.895,245.606,56.895,242.292z"/>
		</g>
	</g>
</g>
</svg>
